<?xml version="1.0" encoding="UTF-8"?>
<svg width="115px" height="61px" viewBox="0 0 115 61" version="1.1" xmlns="http://www.w3.org/2000/svg" xmlns:xlink="http://www.w3.org/1999/xlink">
    <g id="-assets" stroke="none" stroke-width="1" fill="none" fill-rule="evenodd">
        <g id="Artboard" transform="translate(-741.000000, -475.000000)" fill-rule="nonzero">
            <g id="logo-ernstyoung" transform="translate(741.000000, 475.000000)">
                <g id="logo" transform="translate(39.000000, 3.000000)">
                    <path d="M5.82522936,34.7538462 L12.4926606,34.7538462 L12.4926606,30.9461538 L5.82522936,30.9461538 L5.82522936,27.9461538 L13.1944954,27.9461538 L10.7614679,23.7692308 L0.327522936,23.7692308 L0.327522936,41.9076923 L15.0192661,41.9076923 L15.0192661,37.7307692 L5.82522936,37.7307692 L5.82522936,34.7538462 Z M24.8215596,23.7692308 L21.7100917,29.7 L18.5752294,23.7692308 L12.4926606,23.7692308 L18.9027523,34.7538462 L18.9027523,41.9076923 L24.4004587,41.9076923 L24.4004587,34.7538462 L30.833945,23.7692308 L24.8215596,23.7692308 Z" id="Shape" fill="#575756"></path>
                    <polygon id="Shape" fill="#FFE400" points="0 18.3230769 50.9061881 0 50.9061881 9.46153846"></polygon>
                </g>
            </g>
        </g>
    </g>
</svg>