<?xml version="1.0" encoding="UTF-8"?>
<svg width="115px" height="61px" viewBox="0 0 115 61" version="1.1" xmlns="http://www.w3.org/2000/svg" xmlns:xlink="http://www.w3.org/1999/xlink">
    <g id="-assets" stroke="none" stroke-width="1" fill="none" fill-rule="evenodd">
        <g id="Artboard" transform="translate(-405.000000, -243.000000)">
            <g id="logo-harvard" transform="translate(405.000000, 243.000000)">
                <path d="M4.84210526,17.08 L4.84280371,25.6358836 C5.24880278,32.8165183 8.23747041,37.4093038 10.6706987,39.9989247 C13.3101421,42.8059066 15.8896988,43.9287135 15.915977,43.9404072 L15.9531193,43.9556338 L15.9882353,43.9341776 C25.8221814,37.5586358 26.8840304,29.0101937 26.8840304,25.6310714 L26.8840304,17.08 L4.84210526,17.08 Z" id="Path" fill="#181718"></path>
                <path d="M5.22016647,17.4715334 L5.22016647,25.6939696 C5.61546061,32.6747485 8.51799549,37.142447 10.8838223,39.6597796 C13.2797539,42.2107523 15.623129,43.3296613 15.9407732,43.4747103 C25.4820855,37.2725659 26.5133918,28.975479 26.5133918,25.6941586 L26.5133918,17.4715334 L5.22016647,17.4715334 Z" id="Path" fill="#820D1D"></path>
                <path d="M12.1754909,30.5648627 C12.053622,30.5624531 11.9438549,30.7884107 11.9438549,30.7884107 C11.767718,31.0790378 11.2003186,30.9157585 11.2003186,30.9157585 C10.7555591,31.0421212 10.8275477,31.2784046 10.8275477,31.2784046 L10.8457799,32.151817 C10.8105533,32.3873882 10.490574,32.2957734 10.490574,32.2957734 C9.92341314,32.167607 9.7281242,32.5677687 9.7281242,32.5677687 C9.62156241,32.7491874 9.69300815,32.9685079 9.69300815,32.9685079 C9.78195659,33.313291 10.2069209,33.29518 10.2069209,33.29518 C10.3663297,33.4034848 10.6148217,33.3318628 10.6148217,33.3318628 C10.8455621,33.3318628 10.7917574,33.603858 10.7917574,33.603858 C10.8102455,33.7491716 10.7748736,35.9126886 10.7748736,35.9126886 C10.7748736,36.0941074 10.7390799,36.2033689 10.7390799,36.2033689 C10.7390799,36.3676334 10.1718153,36.2760399 10.1718153,36.2760399 C9.80015082,36.3121415 9.67477588,36.6767792 9.67477588,36.6767792 C9.56821063,36.9484555 9.9408536,37.2200751 9.9408536,37.2200751 C9.95934519,37.2931961 10.6506086,37.3301198 10.6506086,37.3301198 C10.8100173,37.3481742 10.8099862,37.6194182 10.8099862,37.6194182 C10.7747595,37.7295338 10.863338,38.6561879 10.863338,38.6561879 C10.9161815,38.8935662 11.6075313,38.8202149 11.6075313,38.8202149 C11.6075313,38.8202149 14.8702881,38.7638938 14.9416197,38.7828412 C15.0120765,38.8008884 15.1887874,38.7641561 15.1887874,38.7641561 L15.4373071,38.9648659 C15.7569994,39.2383458 16.1464051,38.8748918 16.1464051,38.8748918 L16.5016111,38.8015298 C16.6090581,38.8385386 19.6222924,38.7828447 19.6222924,38.7828447 C19.8706496,38.8550479 19.9950633,38.7482385 19.9950633,38.7482385 L20.4907542,38.7108647 C20.8289381,38.7108647 20.810858,38.2734498 20.810858,38.2734498 L20.810858,37.6380926 C20.8293496,37.2933166 21.0235839,37.2768285 21.0235839,37.2768285 L21.4841449,37.200699 L21.6975486,37.0934253 C21.9811325,37.0022677 21.8393682,36.4760694 21.8393682,36.4760694 C21.6790812,36.1664878 21.1296132,36.2206862 21.1296132,36.2206862 C20.7570843,36.2567879 20.7932999,36.0026769 20.7932999,36.0026769 L20.8446255,33.6225502 C20.8631206,33.4221806 20.9884713,33.2591953 20.9884713,33.2591953 C21.11089,33.2763461 21.4841622,33.1685302 21.4841622,33.1685302 C21.8566911,33.0945234 21.8393682,32.7324973 21.8393682,32.7324973 C21.8922117,32.4788754 21.4665973,32.2784987 21.4665973,32.2784987 L20.951336,32.2784987 C20.773612,32.2409371 20.8438026,31.5864448 20.8438026,31.5864448 L20.8438026,31.2604672 C20.8801081,31.0053322 20.4900834,30.8774103 20.4900834,30.8774103 L19.8167723,30.8954044 C19.7454372,30.7879996 19.4986947,30.7334538 19.4986947,30.7334538 C19.3745126,30.6765906 19.1954747,30.6767005 19.1954747,30.6767005 C18.6987465,31.041331 17.5469982,30.9521542 17.5469982,30.9521542 L16.3766476,30.8601036 C16.3229259,30.9151738 15.9505249,30.9521542 15.9505249,30.9521542 C15.91618,31.0415082 15.791825,31.0954196 15.791825,31.0954196 L15.6851249,31.0788111 C15.5785597,30.9524519 15.1880855,30.8954044 15.1880855,30.8954044 C15.1528588,30.8231976 13.5571739,30.9521578 13.5571739,30.9521578 C12.6350837,30.9873558 12.2970278,30.6594009 12.2970278,30.6594009 C12.257396,30.5910318 12.2154165,30.5653872 12.1747924,30.5645828 L12.1754909,30.5648627 Z M13.380833,19.9189977 C12.7784385,20.4262559 11.9099767,20.190993 11.9099767,20.190993 C11.1120513,20.1729351 10.8456728,20.2269812 10.8456728,20.2269812 C10.6695358,20.4814961 10.3682038,20.2456677 10.3682038,20.2456677 C10.3146099,20.172529 10.0670411,20.1722809 10.0670411,20.1722809 C8.45196561,20.2814575 8.02767549,19.9902492 8.02767549,19.9902492 C7.97394337,19.9189531 7.68934294,19.9362456 7.68934294,19.9362456 C7.65497374,20.0093843 7.53129305,20.1722809 7.53129305,20.1722809 C7.45907971,20.2264263 6.90863667,20.1902754 6.90863667,20.1902754 C6.60831769,20.1722271 6.55543616,20.3729875 6.55543616,20.3729875 L6.53787779,21.1169898 C6.55548871,21.5538377 6.44940996,21.4823999 6.44940996,21.4823999 C6.35957982,21.6087484 5.88079689,21.5716794 5.88079689,21.5716794 C5.49066851,21.6086846 5.52828791,22.2070366 5.52828791,22.2070366 C5.59786651,22.6077758 6.18334261,22.4811084 6.18334261,22.4811084 C6.5919695,22.5181136 6.51897819,22.733724 6.51897819,22.733724 C6.50224309,22.9151427 6.53788712,25.2792632 6.53788712,25.2792632 C6.51851037,25.6240499 6.25357367,25.4979671 6.25357367,25.4979671 C5.4204492,25.4772055 5.52825921,26.0606463 5.52825921,26.0606463 C5.54499431,26.6057848 6.14687012,26.5319729 6.14687012,26.5319729 C6.5378975,26.5319729 6.51898407,26.7686709 6.51898407,26.7686709 C6.55601566,26.8416678 6.4845803,27.6772352 6.4845803,27.6772352 C6.53830204,28.0960465 6.92757638,27.9672245 6.92757638,27.9672245 L9.90711578,28.0398955 C10.7754739,28.6960533 10.9707628,28.0578896 10.9707628,28.0578896 C11.0068712,27.98659 11.1301404,28.0045983 11.1301404,28.0045983 C11.3608877,28.0767909 14.0552216,28.0239779 14.1265532,28.0239779 C14.6241458,28.1313791 14.6053707,27.6772352 14.6053707,27.6772352 L14.6404868,26.7684937 C14.6765986,26.6060152 14.9247968,26.5677839 14.9247968,26.5677839 C15.7394573,26.6959467 15.6703386,26.0064867 15.6703386,26.0064867 C15.6527287,25.4766563 15.0841606,25.515777 15.0841606,25.515777 C14.6587986,25.5320206 14.6769513,25.2071025 14.6769513,25.2071025 C14.6945612,24.9697277 14.7107189,22.8989452 14.7107189,22.8989452 C14.6939838,22.7716859 14.8194452,22.5895762 14.8194452,22.5895762 C15.7935041,22.6798338 15.6338982,22.0435163 15.6338982,22.0435163 C15.7052368,21.4821128 15.1199854,21.5901909 15.1199854,21.5901909 C14.6056577,21.5901909 14.7107362,21.2815164 14.7107362,21.2815164 C14.8006355,20.5728079 14.623603,20.299211 14.623603,20.299211 C14.5337037,20.189999 14.0036436,20.2452428 14.0036436,20.2452428 C13.823845,20.3724915 13.5769677,19.9552393 13.5769677,19.9552393 L13.3809181,19.9185636 L13.380833,19.9189977 Z M23.9308615,19.9183067 C23.3285362,20.4273366 22.4592792,20.1916556 22.4592792,20.1916556 C21.6615958,20.1726977 21.3963928,20.227658 21.3963928,20.227658 C21.2193604,20.4812694 20.9161231,20.2456592 20.9161231,20.2456592 C20.8652954,20.1725559 20.615652,20.1723079 20.615652,20.1723079 C19.0023053,20.2814844 18.576321,19.9909494 18.576321,19.9909494 C18.5241102,19.9178461 18.2398901,19.9362725 18.2398901,19.9362725 C18.2039304,20.0094112 18.0804918,20.1723079 18.0804918,20.1723079 C18.0092639,20.2273391 17.4591493,20.1916556 17.4591493,20.1916556 C17.1572951,20.1727331 17.1054301,20.3723054 17.1054301,20.3723054 L17.0878721,21.1183983 C17.1054889,21.5525177 16.99873,21.4810445 16.99873,21.4810445 C16.9106598,21.6083002 16.4314655,21.5717095 16.4314655,21.5717095 C16.0413371,21.6087148 16.0769164,22.2084487 16.0769164,22.2084487 C16.1482515,22.6073807 16.7326627,22.4804439 16.7326627,22.4804439 C17.1413242,22.5174527 17.0703245,22.7351361 17.0703245,22.7351361 C17.0518363,22.9156548 17.0878825,25.2785846 17.0878825,25.2785846 C17.0702657,25.6242749 16.803569,25.4979795 16.803569,25.4979795 C15.971309,25.4781215 16.0769061,26.0592767 16.0769061,26.0592767 C16.0936377,26.6053366 16.6968655,26.5326585 16.6968655,26.5326585 C17.0878928,26.5326585 17.0703279,26.7686656 17.0703279,26.7686656 C17.1055684,26.8417724 17.0338599,27.677407 17.0338599,27.677407 C17.0875817,28.0962183 17.4782391,27.9673964 17.4782391,27.9673964 L20.45643,28.0414494 C21.324788,28.6967212 21.5193855,28.0580579 21.5193855,28.0580579 C21.5537304,27.9867583 21.6807893,28.0047666 21.6807893,28.0047666 C21.9106514,28.0778734 24.6060779,28.0234517 24.6765451,28.0234517 C25.1723743,28.1317565 25.1546711,27.6774035 25.1546711,27.6774035 L25.1891129,26.768662 C25.2260995,26.605287 25.4741006,26.5679522 25.4741006,26.5679522 C26.29049,26.6961151 26.2203339,26.0059818 26.2203339,26.0059818 C26.2009572,25.4779939 25.6334644,25.5159807 25.6334644,25.5159807 C25.2089668,25.534028 25.2262551,25.2073063 25.2262551,25.2073063 C25.243865,24.9699314 25.2606969,22.8991489 25.2606969,22.8991489 C25.2439653,22.7709861 25.3680747,22.58978 25.3680747,22.58978 C26.3421336,22.6800375 26.1825278,22.04372 26.1825278,22.04372 C26.2547481,21.4814307 25.669272,21.5903946 25.669272,21.5903946 C25.1549442,21.5903946 25.2607142,21.2817202 25.2607142,21.2817202 C25.3485389,20.5712045 25.1728895,20.2994147 25.1728895,20.2994147 C25.0847191,20.1911241 24.5515471,20.2454466 24.5515471,20.2454466 C24.3755519,20.3718093 24.1259085,19.9540611 24.1259085,19.9540611 L23.9308961,19.9180941 L23.9308615,19.9183067 Z" id="logo" fill="#181718" fill-rule="nonzero" transform="translate(15.872772, 29.492442) scale(-1, -1) rotate(-180.000000) translate(-15.872772, -29.492442) "></path>
                <path d="M8.08164965,20.2428952 L8.0817845,20.2427003 L8.61250155,20.3887652 C8.73666632,20.4970736 10.0833578,20.3887652 10.0833578,20.3887652 C10.3854437,20.4077231 10.4027873,20.8247981 10.4027873,20.8247981 C10.4741224,21.806005 10.3325552,26.5313191 10.3325552,26.5313191 C10.3149384,26.803899 10.1015935,26.5859959 10.1015935,26.5859959 C9.23235376,26.5490013 8.89614767,26.5673108 8.89614767,26.5673108 C8.77284733,26.6223669 8.25727484,26.5673108 8.25727484,26.5673108 C7.81427253,26.5122548 7.83180912,26.2413333 7.83180912,26.2413333 L7.88377783,20.4083078 C7.86704965,20.2620814 8.08164965,20.2428952 8.08164965,20.2428952 Z M13.1872383,20.2532555 L13.1872487,20.2533512 C13.3187783,20.2386207 13.3290683,20.3308662 13.3290683,20.3308662 C13.3651871,20.4030836 13.2939522,21.1295452 13.2939522,21.1295452 C13.3291859,21.2216773 13.2581585,26.3084327 13.2581585,26.3084327 C13.2061967,26.5990599 13.0278711,26.5091425 13.0278711,26.5091425 C12.7980055,26.6914578 11.6630268,26.581119 11.6630268,26.581119 C11.3080975,26.5269701 10.7412132,26.671784 10.7412132,26.671784 C10.6513831,26.7818996 10.5453676,26.6164162 10.5453676,26.6164162 L10.6176259,25.8184104 L10.6513935,23.5109618 C10.6346445,23.4189005 10.6878615,20.6747457 10.6878615,20.6747457 C10.7230951,20.3841228 11.3618296,20.4027505 11.3618296,20.4027505 C13.0457264,20.4569029 13.0116546,20.3106999 13.0116546,20.3106999 C13.0865131,20.2745933 13.1433951,20.2581651 13.1872383,20.2532555 Z M7.09828962,20.4179969 L7.09813368,20.4178375 C7.21837053,20.4150629 7.2467061,20.5354937 7.2467061,20.5354937 C7.01772221,20.9010456 7.06842196,21.7888802 7.06842196,21.7888802 C7.06842196,21.7888802 7.03460323,21.6268552 7.05221415,21.7162092 C7.06894787,21.8083413 7.0339805,26.9319495 7.0339805,26.9319495 C7.06831512,27.4951602 7.44322977,27.3679824 7.44322977,27.3679824 L9.7469339,27.4058983 C9.95919306,27.4058983 9.97789557,27.5491638 9.97789557,27.5491638 C9.97789557,27.731479 9.83607597,27.7138818 9.83607597,27.7138818 L7.06859519,27.7138818 C6.71369004,27.696731 6.75119188,27.4238924 6.75119188,27.4238924 L6.75119188,26.7318031 C6.76882598,26.3698763 6.39598592,26.2964789 6.39598592,26.2964789 C5.88078341,26.406591 5.75645613,26.0798515 5.75645613,26.0798515 C5.73972103,25.6971631 6.34128565,25.7324178 6.34128565,25.7324178 C6.83886444,25.7324178 6.69649162,25.2784191 6.69649162,25.2784191 L6.73228537,22.5335556 C6.69615276,22.2627826 6.0576257,22.2629459 6.0576257,22.2629459 C5.65074147,22.3351527 5.75643193,21.9355828 5.75643193,21.9355828 C5.95192833,21.7343167 6.37839678,21.7528707 6.37839678,21.7528707 C6.7509216,21.7718286 6.75116768,21.3542221 6.75116768,21.3542221 L6.76873262,20.6090151 C6.92131248,20.4658454 7.02614889,20.4196624 7.09828962,20.4179969 Z M14.2223942,20.4581382 L14.2228506,20.4584287 C14.251895,20.4609447 14.2850886,20.4683152 14.3227771,20.4819579 C14.3227771,20.4819579 14.58798,20.4993921 14.5167521,20.9172466 L14.5343862,21.5533125 C14.5343862,21.5533125 14.4809307,21.8262255 14.9591604,21.7540223 C14.9591604,21.7540223 15.4381197,21.8263921 15.4548513,22.0087144 C15.4548513,22.0087144 15.5985865,22.3723918 15.0314256,22.3353866 L14.6242164,22.3353866 C14.6242164,22.3353866 14.4464371,22.4443257 14.4992806,22.6627496 L14.4466065,25.2968775 C14.4466065,25.2968775 14.4099552,25.7511596 14.8369769,25.7341506 C14.8369769,25.7341506 15.2799038,25.7153698 15.3677285,25.8606551 C15.3677285,25.8606551 15.6695136,26.3149869 15.0125226,26.2779781 C15.0125226,26.2779781 14.6060049,26.2604517 14.5161747,26.332655 C14.5161747,26.332655 14.4463126,26.4253186 14.3925908,27.2773634 C14.3925908,27.2773634 14.4281322,27.7862268 14.0556033,27.7320708 C14.0556033,27.7320708 11.5916018,27.767531 11.3617362,27.7133857 C11.3617362,27.7133857 11.1119752,27.786202 11.0767485,27.5867324 C11.0767485,27.5867324 11.0766448,27.442776 11.323242,27.442776 L13.8077475,27.4233963 C13.8077475,27.4233963 14.0380349,27.5490681 14.0380349,27.1140274 C14.0380349,27.1140274 14.1285013,25.1332934 14.1373079,22.9517822 C14.1400741,22.3028179 14.1685237,21.6221742 14.144735,20.9903605 C14.144735,20.9903605 14.0909268,20.7191697 14.0204734,20.6623065 C14.0204734,20.6623065 14.0200239,20.4404307 14.2223942,20.4581382 Z M13.6625982,20.5051964 L13.6626085,20.5049944 C13.8684572,20.4870287 13.9854127,21.0621456 13.9854127,21.0621456 L13.9138287,26.531958 C13.8962119,26.7151839 13.8618288,26.8240238 13.8618288,26.8240238 C13.6301998,26.8790551 13.4883664,26.3686077 13.4883664,26.3686077 L13.5059244,20.6270057 C13.562561,20.5452668 13.6150933,20.5093477 13.6625982,20.5051964 Z M7.61894487,20.5730198 L7.61897253,20.5731013 C7.61897253,20.5731013 7.65476628,20.9345604 7.65476628,21.025718 C7.65476628,21.1167871 7.60141451,26.2779568 7.60141451,26.2779568 C7.60141451,26.2779568 7.65508439,26.6785508 7.31777876,26.8780203 C7.31777876,26.8780203 7.22957475,26.9150078 7.21107866,26.6613929 L7.24752246,21.208944 C7.24752246,21.208944 7.28164961,20.5369111 7.61894487,20.5730198 Z M7.81948946,26.7274446 L7.81945108,26.7274375 C7.8386062,26.7293971 7.84984085,26.733667 7.84984085,26.733667 C7.92118631,26.7508142 8.25639314,26.8416352 8.25639314,26.8416352 C8.39909099,26.8786298 10.0304867,26.8603203 10.0304867,26.8603203 C10.5465778,27.1509546 10.0304867,27.2769701 10.0304867,27.2769701 L9.53344726,27.1683109 L7.70738503,27.1683109 C7.44317791,27.2251706 7.5135656,26.9696776 7.5135656,26.9696776 C7.63246088,26.7388442 7.76202306,26.7215623 7.81948946,26.7274446 Z M13.3884053,26.7835034 L13.3883845,26.783507 C13.4233104,26.7860902 13.4531604,26.7932765 13.4707738,26.8070396 C13.4707738,26.8070396 13.7368515,27.0239611 13.7368515,27.1503203 C13.7368515,27.1503203 13.7193523,27.3155309 13.4005382,27.2243733 C13.4005382,27.2243733 11.3958357,27.2423674 11.2901522,27.2423674 C11.2901522,27.2423674 10.7400826,27.3692935 10.7938043,27.0416576 C10.7938043,27.0416576 10.9526426,26.8603274 11.0592078,26.8603274 C11.0592078,26.8603274 12.8326063,27.0245565 13.133807,26.8070361 C13.133807,26.8070361 13.2836311,26.7757608 13.3884053,26.7835034 Z M10.606022,27.2202132 L10.6060185,27.2202273 C10.7496396,27.257718 10.8997852,27.6057293 10.8997852,27.6057293 C10.9350119,27.9676491 10.6161495,28.0244343 10.6161495,28.0244343 C10.2612236,28.0244343 10.2258136,27.6770006 10.2258136,27.6770006 C10.2082003,27.2248084 10.5459174,27.2250572 10.5459174,27.2250572 C10.5657333,27.215805 10.5855042,27.2148589 10.606022,27.2202132 Z M18.6296036,20.2449505 L18.6297142,20.2448406 L19.1618489,20.3870784 C19.2869127,20.4980905 20.6333967,20.3870784 20.6333967,20.3870784 C20.9346043,20.4060364 20.9535005,20.8244933 20.9535005,20.8244933 C21.0230756,21.8074721 20.8825907,26.5303056 20.8825907,26.5303056 C20.8649773,26.8055857 20.6509548,26.5856735 20.6509548,26.5856735 C19.7843601,26.5477824 19.4441604,26.5662938 19.4441604,26.5662938 C19.3208601,26.6213499 18.8073276,26.5662938 18.8073276,26.5662938 C18.3643315,26.5121379 18.3818619,26.2416982 18.3818619,26.2416982 L18.4351099,20.406901 C18.4174931,20.2624949 18.6296036,20.2449505 18.6296036,20.2449505 Z M23.7365753,20.2767867 L23.7364232,20.2770419 C23.8680738,20.2618082 23.8762166,20.3531713 23.8762166,20.3531713 C23.9123146,20.4244674 23.843801,21.1539411 23.843801,21.1539411 C23.8764068,21.2450101 23.8066588,26.3314112 23.8066588,26.3314112 C23.754697,26.6211348 23.577049,26.5307354 23.577049,26.5307354 C23.3480824,26.7139543 22.2115478,26.6061739 22.2115478,26.6061739 C21.8566185,26.5484071 21.2890427,26.6954535 21.2890427,26.6954535 C21.2009725,26.8046655 21.0931971,26.6400856 21.0931971,26.6400856 L21.1654623,25.8413711 L21.2007305,23.5338162 C21.1831102,23.4426408 21.2358465,20.6982734 21.2358465,20.6982734 C21.2719445,20.406738 21.9098147,20.4242017 21.9098147,20.4242017 C23.5937115,20.4810649 23.5596397,20.3349221 23.5596397,20.3349221 C23.6351585,20.2988191 23.6926906,20.2818643 23.7365753,20.2767867 Z M17.6483182,20.4179969 L17.648536,20.4180961 C17.7687729,20.4150133 17.7964342,20.5350614 17.7964342,20.5350614 C17.566572,20.9005778 17.6194985,21.7912118 17.6194985,21.7912118 C17.6194985,21.7912118 17.5843306,21.6278049 17.6019405,21.7171588 C17.6195538,21.8082279 17.5843825,26.9321905 17.5843825,26.9321905 C17.6196161,27.4963047 17.9922833,27.3682234 17.9922833,27.3682234 L20.2964715,27.4054306 C20.5087237,27.4054306 20.5267589,27.5507725 20.5267589,27.5507725 C20.5267589,27.7321877 20.385617,27.7141086 20.385617,27.7141086 L17.6194847,27.7141086 C17.2636944,27.6969578 17.3000552,27.4220427 17.3000552,27.4220427 L17.3000552,26.7333906 C17.3185537,26.3678388 16.9455062,26.2959758 16.9455062,26.2959758 C16.4320636,26.4042877 16.3073249,26.0786574 16.3073249,26.0786574 C16.288861,25.6968867 16.8928459,25.7346857 16.8928459,25.7346857 C17.3895465,25.7346857 17.2467034,25.2785963 17.2467034,25.2785963 L17.2816258,22.5337682 C17.2463922,22.2629952 16.6083147,22.2631585 16.6083147,22.2631585 C16.2005556,22.3353653 16.3071209,21.9344134 16.3071209,21.9344134 C16.5026173,21.7340474 16.9277372,21.7530833 16.9277372,21.7530833 C17.2994017,21.7720058 17.2998512,21.353726 17.2998512,21.353726 L17.3180835,20.6090151 C17.4706633,20.4661856 17.5761774,20.4198466 17.6483182,20.4179969 Z M24.7710397,20.4581382 L24.7708841,20.4580769 C24.7997936,20.4605201 24.8330702,20.4673772 24.8708313,20.4809161 C24.8708313,20.4809161 25.1366601,20.499307 25.065325,20.9190042 L25.0849092,21.5522707 C25.0849092,21.5522707 25.0313154,21.8268953 25.5095105,21.7531896 C25.5095105,21.7531896 25.9873599,21.8265409 26.0060313,22.0069072 C26.0060313,22.0069072 26.1474498,22.3718921 25.58143,22.3350393 L25.1721807,22.3350393 C25.1721807,22.3350393 24.9950756,22.4439784 25.0479191,22.6624024 L24.995245,25.2979122 C24.995245,25.2979122 24.9593199,25.7510958 25.3855809,25.7339451 C25.3855809,25.7339451 25.8274532,25.7150828 25.9164017,25.8612929 C25.9164017,25.8612929 26.2201922,26.3149514 25.5632012,26.2779427 C25.5632012,26.2779427 25.1544187,26.2599946 25.0654702,26.3340015 C25.0654702,26.3340015 24.9949304,26.4232988 24.9412087,27.2780367 C24.9412087,27.2780367 24.977203,27.787995 24.6055731,27.7320354 C24.6055731,27.7320354 22.1393379,27.7672901 21.9103575,27.7140413 C21.9103575,27.7140413 21.6614817,27.7879666 21.6253698,27.5866934 C21.6253698,27.5866934 21.6253249,27.4406605 21.8745638,27.4406605 L24.3557153,27.4219754 C24.3557153,27.4219754 24.5873512,27.5499185 24.5873512,27.1139919 C24.5873512,27.1139919 24.6778175,25.1339666 24.6866242,22.9524555 C24.6884706,22.3026052 24.7185177,21.6221742 24.694729,20.9903605 C24.694729,20.9903605 24.6404575,20.7182661 24.5691189,20.6623065 C24.5691189,20.6623065 24.5686694,20.4410353 24.7710397,20.4581382 Z M24.2119352,20.5051964 L24.2119283,20.5052956 C24.4167949,20.4875779 24.5347324,21.0624468 24.5347324,21.0624468 L24.4631484,26.5333222 C24.4455281,26.715641 24.4104743,26.8246971 24.4104743,26.8246971 C24.1806191,26.8788424 24.0390519,26.367899 24.0390519,26.367899 L24.0566099,20.6270057 C24.1127555,20.5454333 24.1646585,20.5092874 24.2119352,20.5051964 Z M18.1682819,20.5716378 L18.168358,20.5716697 C18.168358,20.5716697 18.203474,20.935021 18.203474,21.0270858 C18.203474,21.1181549 18.1514742,26.2786159 18.1514742,26.2786159 C18.1514742,26.2786159 18.2033841,26.6783027 17.8678384,26.8786794 C17.8678384,26.8786794 17.7789557,26.9135975 17.7604606,26.6599755 L17.7969286,21.2096527 C17.7969286,21.2096527 17.831851,20.5364505 18.1682819,20.5716378 Z M18.421383,26.6831503 L18.4213657,26.6831645 C18.440369,26.6851382 18.4510809,26.689394 18.4510809,26.689394 C18.5233011,26.7074448 18.8603301,26.7987442 18.8603301,26.7987442 C19.0020944,26.8330457 20.6316921,26.8167383 20.6316921,26.8167383 C21.1460198,27.1073549 20.6316921,27.2354433 20.6316921,27.2354433 L20.1366927,27.1260931 L18.3106305,27.1260931 C18.0455417,27.1784454 18.1161368,26.9240013 18.1161368,26.9240013 C18.2356925,26.6938447 18.364373,26.6772255 18.421383,26.6831503 Z M23.9902988,26.7392091 L23.9903265,26.7392091 C24.0254598,26.7417924 24.0555588,26.7489787 24.0733934,26.7627418 C24.0733934,26.7627418 24.3394712,26.9801417 24.3394712,27.107408 C24.3394712,27.107408 24.3215051,27.2716583 24.0018094,27.1786935 C24.0018094,27.1786935 21.9986455,27.1987641 21.8920803,27.1987641 C21.8920803,27.1987641 21.3417859,27.3247831 21.3963894,26.9980543 C21.3963894,26.9980543 21.5552276,26.8167241 21.6617929,26.8167241 C21.6617929,26.8167241 23.4357999,26.9802622 23.7343521,26.7627418 C23.7343521,26.7627418 23.8849023,26.7314665 23.9902988,26.7392091 Z M21.2079155,27.1745334 L21.2079155,27.1745617 C21.3527191,27.2132607 21.5023565,27.5614457 21.5023565,27.5614457 C21.5367014,27.924269 21.218043,27.9787687 21.218043,27.9787687 C20.8631171,27.9787687 20.8277072,27.6341025 20.8277072,27.6341025 C20.8100938,27.1791825 21.1464624,27.1786864 21.1464624,27.1786864 C21.1664961,27.169661 21.1872283,27.1690054 21.2079155,27.1745334 Z M19.1616691,30.9334914 L19.1612542,30.9333143 C19.1612542,30.9333143 19.3733059,30.9501638 19.3733059,31.0945738 C19.3733059,31.0945738 19.3010857,32.6416809 19.3733059,32.9314045 C19.3733059,32.9314045 19.3738834,35.7653846 19.3192799,35.9648542 L19.3555854,36.8737728 C19.3555854,36.8737728 19.3914068,37.2743739 18.7714128,37.310479 C18.7714128,37.310479 19.1620253,37.3646846 16.713687,37.2924849 C16.713687,37.2924885 16.3230746,37.2745617 15.898577,37.4731241 C15.898577,37.4731241 15.8101092,37.4553922 15.8101092,37.2198175 C15.8101092,37.2198175 15.880566,36.365682 15.8101092,35.5290161 L15.7756674,34.6023089 L15.6156155,34.6223795 C15.6156155,34.6223795 15.6337336,35.0573848 15.5791475,35.4743535 C15.5501031,35.7045065 15.6505344,36.7653015 15.5615895,37.3104755 C15.5615895,37.3104755 15.5446815,37.492323 15.1712536,37.3298551 C15.1712536,37.3298551 12.9017009,37.3835752 12.831244,37.3104755 C12.831244,37.3104755 12.2107763,37.3294263 12.1579328,37.001801 C12.1579328,37.001801 12.2458958,34.5125545 12.1930489,34.4195861 C12.1930489,34.4195861 12.1578256,33.0579444 12.1930489,32.9315817 C12.1930489,32.9315817 12.2458371,31.6767708 12.2106069,31.5314572 C12.2106069,31.5314572 12.228324,31.2409682 12.1754909,31.094751 C12.1754909,31.094751 12.1754909,30.912177 12.4766846,31.021389 C12.4766846,31.021389 12.5818668,31.2228642 13.1675262,31.1335102 C13.1675262,31.1335102 13.5937872,31.2051713 14.0015496,31.1501188 C14.0015496,31.1501188 14.9051482,31.0779121 15.1367703,31.1501188 C15.1367703,31.1501188 15.491876,31.0774337 15.5966744,31.4781729 L15.5791164,32.6049131 L15.6858165,32.968268 L15.810078,32.8782939 L15.8627521,32.6049167 L15.8803101,31.4041164 C15.8803101,31.4041164 15.9510505,31.1871205 16.2355161,31.1501153 C16.2355161,31.1501153 16.6785571,31.0947014 16.7507774,31.1335067 C16.82121,31.167811 17.7785131,31.2231654 18.0453619,31.1681129 C18.3104611,31.1130569 18.3628793,31.3495742 19.1616691,30.9334914 Z M20.3556356,31.1584249 L20.3557462,31.1579926 C20.4420565,31.1507744 20.5346251,31.159658 20.5610451,31.223743 C20.5610451,31.223743 20.7036634,31.6583479 20.5786031,31.9137771 C20.5786031,31.9137771 20.5438605,32.4411625 20.811591,32.4411625 C20.811591,32.4411625 20.916334,32.5508954 21.1303462,32.4958394 C21.1303462,32.4958394 21.5895588,32.5507536 21.5895588,32.6951636 C21.5895588,32.6951636 21.5896141,33.0235969 21.2708035,32.9685409 L20.8446808,33.0038381 C20.8446808,33.0038381 20.561498,33.0608891 20.5974578,33.4042584 C20.6335523,33.7499664 20.5785478,36.2218 20.5785478,36.2218 C20.5785478,36.2218 20.5788244,36.5132315 21.0235839,36.4951772 C21.0235839,36.4951772 21.5719351,36.4766728 21.5719351,36.6391336 C21.5719351,36.6391336 21.7131669,37.0024353 21.3247673,37.0204897 C21.3247673,37.0204897 20.5786308,37.0022971 20.6332342,37.2198139 C20.6332342,37.2198139 20.5786412,37.7302931 20.5434145,37.8205507 C20.5434145,37.8205507 20.6156866,38.2390573 20.5258564,38.3112605 C20.5258564,38.3112605 20.4741298,38.54759 19.9950356,38.5105848 C19.9950356,38.5105848 16.9448907,38.4938663 16.4657966,38.5299644 C16.4657932,38.5299644 16.1826104,38.4938132 16.2530672,38.2392841 C16.2530672,38.2392841 16.4655995,38.1278042 16.6082732,38.1666131 C16.750072,38.2018146 18.8253628,38.147928 18.8253628,38.147928 C18.8253628,38.147928 19.7280797,38.2198265 19.8707533,38.0925601 L20.082805,38.0198892 C20.082805,38.0198892 20.1719471,37.9116835 20.1719471,37.7672736 C20.1719471,37.6201811 20.1895051,37.1298611 20.1895051,37.1298611 L20.2428569,36.9492219 C20.2428569,36.9492219 20.225247,36.7674382 20.2428569,31.9142023 C20.2428569,31.9142023 20.3135523,31.5342247 20.082805,31.2968463 C20.082805,31.2968463 20.0825803,31.1521386 20.1530371,31.170193 C20.2252574,31.1891361 20.1895051,31.1888781 20.1895051,31.1888781 C20.1895051,31.1888781 20.2693253,31.1656466 20.3556356,31.1584249 Z M11.2522942,31.1895691 L11.252391,31.1895726 C11.252391,31.1895726 11.6973545,31.2053697 11.5731725,31.333529 C11.5731725,31.333529 11.35971,31.7335596 11.3773268,31.8256208 L11.3597688,33.0416229 C11.3597688,33.0416229 11.3421589,33.8232043 11.3597688,33.914362 C11.3773822,34.0046514 11.3422108,36.2951974 11.3422108,36.2951974 C11.3422108,36.2951974 11.3246009,36.7294337 11.3422108,36.876551 L11.3422108,37.8572618 C11.3422108,37.8572618 11.3070394,38.294255 11.6258465,38.1832394 C11.6258465,38.1832394 14.7461648,38.1108802 14.9416785,38.1659363 C14.9416785,38.1659363 15.2249719,38.2206379 15.1192884,38.3659515 C15.1192884,38.3659515 15.1191639,38.4936254 14.9227685,38.4566166 C14.9227685,38.4566166 13.451359,38.601225 12.1215063,38.5479727 C12.1215063,38.5479727 11.2345011,38.6013987 11.1807793,38.4939904 C11.1807793,38.4939904 11.0403117,38.4759537 11.0403117,37.9479304 C11.0403117,37.9479304 11.0402148,37.4575077 11.0058699,37.3672501 C11.0058699,37.3672501 11.0403082,37.1095389 10.5973121,37.0571901 C10.5973121,37.0571901 9.97740458,37.1669762 9.95978778,36.7851949 C9.95978778,36.7851949 10.0464714,36.5139828 10.6506293,36.5491879 C10.6506293,36.5491879 11.0939055,36.6208667 11.0058353,36.257122 L11.0578351,33.5696993 C11.0578351,33.5696993 11.1120686,33.0949886 10.8099897,33.0769343 C10.8099897,33.0769343 10.5277093,33.0615234 10.4378757,33.0949284 C10.4378757,33.0949284 9.92364134,33.0945103 9.95974974,32.7876359 C9.95974974,32.7876359 10.1362636,32.4605244 10.6505913,32.5336348 C10.6505913,32.5336348 11.0401837,32.6053561 11.0578005,32.1522787 C11.0578005,32.1522787 11.0400489,31.2247671 11.2522942,31.1895691 Z M19.7201167,31.2421694 L19.7201201,31.2423183 C19.7780257,31.2513472 19.8355992,31.2969951 19.8355992,31.2969951 L20.0476509,31.6970256 C19.9948144,31.9867421 20.0476509,32.1676435 20.0476509,32.1676435 L20.0125349,37.402519 C20.0653749,37.8204125 19.8707153,37.5866167 19.8707153,37.5866167 C19.76415,37.5288215 19.5512858,37.1104354 19.5512858,37.1104354 L19.5688438,36.9858586 L19.6039599,31.4061965 C19.6039599,31.2608829 19.6622112,31.233144 19.7201167,31.2421694 Z M11.8560026,31.2968463 L11.8560095,31.296864 C11.8560095,31.296864 11.9803195,31.2969384 11.9627096,31.5162589 L11.9270956,37.0030802 C11.9270956,37.0030802 11.9806514,37.367569 11.6785759,37.6031437 C11.6785759,37.6031437 11.5185241,37.8024751 11.5185241,37.4937936 L11.5901081,31.8967681 C11.5901081,31.8967681 11.6077422,31.4793387 11.8560026,31.2968463 Z M12.103848,37.3485083 L12.1038619,37.3485083 C12.1038619,37.3485083 12.3516382,37.6196602 12.7602651,37.6025095 L15.1698429,37.6384977 C15.1698429,37.6384977 15.436913,37.6578986 15.421063,37.8032157 C15.421063,37.8032157 15.3835404,38.0193789 15.066514,37.9471721 L12.1571998,37.9111839 L11.8377703,37.9312545 C11.8377703,37.9312545 11.6245188,37.8935512 11.9627061,37.4765471 L12.103848,37.3485083 Z M19.4271833,37.4004141 L19.4272109,37.4004106 C19.4671746,37.4076288 19.5158067,37.4306583 19.5514725,37.4938432 L19.8161983,37.785909 C19.8161983,37.785909 19.8361836,37.9659068 19.5332368,37.9478596 C19.5332368,37.9478596 16.6431161,37.9478064 16.5550459,37.9658537 C16.5550459,37.9658537 16.005163,38.0563097 16.0580065,37.7485353 C16.0580065,37.7485353 16.3766338,37.5286089 16.5016941,37.5665141 C16.5016941,37.5665141 18.1144875,37.6752584 18.6120801,37.5858938 C19.1087945,37.493829 18.8065738,37.5665141 18.8065738,37.5665141 C18.8065738,37.5665141 19.2329766,37.5669677 19.3562735,37.4017961 C19.3562735,37.4017961 19.3872196,37.3931924 19.4271833,37.4004141 Z M15.7046607,37.8931721 C15.7046607,37.8931721 16.0058545,37.9476859 16.0058545,38.2392203 C16.0058545,38.5298439 16.022351,38.6931197 15.8444507,38.7292213 C15.6683103,38.7644229 15.4738685,38.7114895 15.421025,38.4759147 C15.366425,38.2394541 15.4554184,37.947328 15.7046607,37.8931792 Z" id="Combined-Shape" fill="#FFFFFF"></path>
                <path d="M22.1809371,22.1827013 L22.1809406,22.1826801 L22.3578762,22.2179773 C22.4820583,22.19993 22.6063959,22.25466 22.6063959,22.25466 C22.730578,22.4541296 22.5172538,22.5626435 22.5172538,22.5626435 L22.4470217,22.8000325 C22.4276588,23.0004198 22.4470217,24.7268338 22.4470217,24.7268338 C22.482245,24.8161878 22.6239574,24.9787584 22.6239574,24.9787584 C22.6239574,25.14393 22.4274375,25.1088737 22.4274375,25.1088737 L21.9141817,25.1261769 C21.7547729,25.1090261 21.8081558,24.9254671 21.8081558,24.9254671 C21.9851745,24.8343165 22.0384433,24.5081441 22.0384433,24.5081441 L22.0384433,22.707989 L21.8790656,22.3453428 C21.8253508,22.2000292 22.1809371,22.1827013 22.1809371,22.1827013 Z M12.1862096,22.1910074 L12.1862442,22.1910322 C12.2381368,22.2114678 12.2666073,22.2830828 12.2666073,22.2830828 L12.3577755,22.5931428 C12.2670637,22.8485649 12.1788137,22.629131 12.1788137,22.629131 C12.1444791,22.519019 11.7905179,22.4464189 11.7905179,22.4464189 C11.4884389,22.4103102 11.5224139,22.8644506 11.5224139,22.8644506 C11.4352254,23.1009289 11.5771142,23.391836 11.5771142,23.391836 C11.8774228,23.5190953 11.9843235,23.3011709 11.9843235,23.3011709 C12.0019403,23.2289606 12.1619334,23.2464941 12.1619334,23.2464941 C12.2861154,23.4288022 12.1619334,23.7184939 12.1619334,23.7184939 C12.1081943,23.8105587 11.7722545,23.5925316 11.7722545,23.5925316 C11.4693077,23.5726736 11.4886187,23.7731708 11.4886187,23.7731708 L11.4886187,24.5732318 C11.4886187,24.7176418 11.6311126,24.8445326 11.6311126,24.8445326 C12.2669634,24.9356902 12.3206056,24.6458993 12.3206056,24.6458993 C12.4993842,24.3002125 12.5522415,24.5358546 12.5522415,24.5358546 C12.6764063,25.1893015 12.1787791,25.099207 12.1787791,25.099207 C10.8859338,25.0820562 11.0442499,24.9725537 11.0442499,24.9725537 C10.9209531,24.9536028 11.0989502,24.7171705 11.0989502,24.7171705 L11.15095,24.5732141 L11.16986,22.6471216 C11.16986,22.5740006 11.115834,22.5370768 11.115834,22.5370768 C10.9027035,22.4468193 10.9719882,22.2650816 10.9719882,22.2650816 L11.4514626,22.2104047 C11.5227943,22.2835151 12.1267793,22.1917161 12.1267793,22.1917161 C12.149019,22.1824497 12.1689109,22.1841967 12.1862096,22.1910074 Z M19.0818316,22.2027719 L19.0819423,22.2030023 C19.1616449,22.2052595 19.2365898,22.2189199 19.2365898,22.2189199 L19.9807831,22.2189199 C20.6906315,22.4544946 20.5845261,22.9815965 20.5845261,22.9815965 C20.6382582,23.5086914 20.0895267,23.7269807 20.0895267,23.7269807 L20.0523845,24.0176611 L20.5676458,24.8537245 C20.6565942,24.9259277 20.6378779,24.9997574 20.6378779,24.9997574 C20.5674176,25.2001271 20.2833289,24.9997574 20.2833289,24.9997574 L19.6458045,23.9816977 C19.5920828,23.9085873 19.4850784,24.0363745 19.4850784,24.0363745 L19.4499624,24.5990536 L19.60934,24.8703544 C19.7159052,25.016568 19.5370817,25.1257375 19.5370817,25.1257375 L18.9717534,25.0715213 C18.8651882,25.0164652 18.9717534,24.8348233 18.9717534,24.8348233 C19.1135454,24.7445657 19.1304533,24.5081511 19.1304533,24.5081511 L19.1135696,23.454089 L19.1304533,22.6907036 C19.1304533,22.5995424 18.9893114,22.4367025 18.9893114,22.4367025 C18.8651328,22.4186517 18.9001694,22.2553723 18.9001694,22.2553723 C18.9177793,22.2093381 19.002129,22.2005041 19.0818316,22.2027719 Z M8.18984,22.2112765 L8.18985037,22.2115032 L8.84694509,22.2288064 C8.84694509,22.2288064 9.05873747,22.4100408 8.77603529,22.6122177 C8.77603529,22.6122177 8.81071568,22.9030362 9.18324454,24.0095782 C9.18324454,24.0095782 9.28934992,24.42761 9.41353197,24.1189284 L9.76873793,22.8281576 L9.66203784,22.4475103 C9.66203784,22.4475103 9.55530317,22.2648548 9.71471191,22.2468005 C9.71471191,22.2468005 10.0873341,22.2117407 10.1401776,22.3561506 L9.98012576,22.7028934 C9.98012576,22.7028934 9.59154987,24.4638923 9.37842284,24.8276369 C9.37842284,24.8276369 9.34352462,25.1918387 9.04143531,24.9003079 C9.04143531,24.9003079 8.34934556,22.6654913 8.31411541,22.5914773 L8.08382798,22.4281413 C8.08382798,22.4281413 7.94327388,22.2286398 8.18984,22.2112765 Z M19.7419,22.4410539 L19.7419069,22.4410752 C19.6444802,22.450214 19.5561922,22.4736049 19.5561922,22.4736049 L19.5028404,22.5995672 C19.5195762,23.0003064 19.5197242,23.5456577 19.5197242,23.5456577 C19.8579046,23.8182447 20.0525505,23.4356129 20.0525505,23.4356129 C20.4946717,23.0005722 20.052305,22.5998861 19.9809664,22.4915778 C19.9452971,22.4369718 19.8393266,22.4319151 19.7419,22.4410539 Z M15.7316997,32.438805 L15.7317031,32.4387589 C15.7446556,32.4412358 15.7594025,32.4475469 15.774924,32.4588295 C15.8991025,32.5517908 15.9167436,32.7322068 15.9167436,32.7322068 C16.2716522,33.6952708 16.5731467,35.0964229 16.5731467,35.0964229 C16.6603352,35.2751344 16.8209922,35.4224005 16.8209922,35.4224005 C17.1230711,35.5316125 16.8209922,35.6217248 16.8209922,35.6217248 C16.6968274,35.6767808 16.2895145,35.6044217 16.2895145,35.6044217 C16.0763874,35.565634 16.1639044,35.4950715 16.1639044,35.4950715 C16.2528528,35.4039316 16.1821367,35.0403641 16.1821367,35.0403641 C16.1636485,34.895054 16.005201,34.6583348 16.005201,34.6583348 C15.9347476,34.6213402 15.8100331,34.7849881 15.8100331,34.7849881 C15.8100331,34.7849881 15.6151245,34.858995 15.5966294,34.7849881 C15.5790161,34.7118777 15.4548098,34.6424172 15.4548098,34.6424172 C15.2425645,34.6424172 15.1536161,35.1857131 15.1536161,35.1857131 C15.2777912,35.6397189 15.1536161,35.5656872 15.1536161,35.5656872 C15.0479498,35.712808 14.71062,35.6044465 14.71062,35.6044465 C14.5520929,35.5656553 14.6579459,35.4390339 14.6579459,35.4390339 C14.8525779,35.4038359 14.9051137,35.1857273 14.9051137,35.1857273 C14.9949438,35.0584787 15.5615168,32.6955736 15.5615168,32.6955736 C15.6085238,32.6000184 15.6410328,32.42147 15.7316997,32.438805 Z M15.6857819,33.5330049 L15.6857819,33.5330226 L15.4919625,33.6582939 C15.4734743,33.7494338 15.3494686,34.2590307 15.3494686,34.2590307 L15.4548202,34.4417428 C15.4548202,34.4417428 15.739476,34.4583514 15.8451561,34.4583514 C15.9508431,34.4583514 15.9694176,34.3699861 15.9694176,34.2770212 C15.9694176,34.1876531 15.774924,33.6416641 15.774924,33.6416641 L15.6857819,33.5330049 Z M13.1330567,32.6408968 L13.1330463,32.640918 C13.1330463,32.640918 13.2924447,32.7504312 13.4342401,32.7883365 L14.2682636,32.7883365 L14.5694573,32.640918 C14.5694573,32.640918 14.6929444,32.6593551 14.6585994,32.8236302 C14.6585994,32.8236302 14.7101774,33.2423777 14.4803153,33.29563 C14.4803153,33.29563 14.3378352,33.2422111 14.2682636,33.0409379 C14.2682636,33.0409379 14.0366795,32.9153052 14.0190696,33.3323092 C14.0190696,33.3323092 14.0727879,34.6776648 14.0190696,34.85908 L14.0021858,35.1490694 C14.0021858,35.1490694 14.0725562,35.3486452 14.1791215,35.4217556 C14.1791215,35.4217556 14.2681979,35.6765079 14.0541857,35.6584536 C14.0541857,35.6584536 13.6123998,35.6217212 13.5058345,35.6397685 C13.5058345,35.6397685 13.2565956,35.6396161 13.5058345,35.3137909 C13.5058345,35.3137909 13.593884,35.1858123 13.5753924,34.8590835 C13.5753924,34.8590835 13.5755618,33.3326034 13.6125346,33.2423422 C13.6125346,33.2423422 13.6477717,33.0413206 13.5227183,32.9862646 L13.3093147,33.0049497 L13.0452631,33.2603328 C13.0452631,33.2603328 12.9906873,33.5329659 12.865627,33.2423387 L12.865627,33.0963058 L13.0256789,32.6588909 L13.1330567,32.6408968 Z M18.4208643,32.753709 L18.4208955,32.7537161 C18.4923239,32.7635884 18.5066628,32.8423046 18.5066628,32.8423046 L18.5397527,33.1129143 C18.5758576,33.4414465 18.4344011,33.4416594 18.4344011,33.4416594 C18.3278393,33.4046578 18.1500876,33.1862763 18.1500876,33.1862763 C17.6727466,32.8956349 17.5476932,33.4416594 17.5476932,33.4416594 C17.6366589,33.7503516 18.0265107,33.9337512 18.0265107,33.9337512 C18.434287,34.1151806 18.664035,34.4777558 18.664035,34.4777558 C18.9846021,34.9858998 18.5397734,35.4037898 18.5397734,35.4037898 C18.1328754,35.8956725 17.6530552,35.4951459 17.6530552,35.4951459 L17.5132618,35.4577722 C17.247294,35.695147 17.247184,35.4577722 17.247184,35.4577722 C17.1925806,34.8584493 17.3174161,34.822415 17.3174161,34.822415 C17.4239814,34.7854062 17.5132618,34.985751 17.5132618,34.985751 C17.4947702,35.149119 17.7779875,35.295811 17.7779875,35.295811 C18.3618766,35.604489 18.4343907,34.985751 18.4343907,34.985751 C18.4704888,34.6409608 17.9211349,34.369777 17.9211349,34.369777 C17.1743103,34.0430269 17.2471667,33.5323316 17.2471667,33.5323316 C17.2647663,32.7876916 17.9366598,32.8422975 17.9366598,32.8422975 C17.9903815,32.9316515 18.2209698,32.8422975 18.2209698,32.8422975 C18.3144374,32.7664834 18.37801,32.7477877 18.4208643,32.753709 Z" id="Combined-Shape" fill="#181718"></path>
                <path d="M104.03909,20.2366586 C103.003381,20.2366586 101.674254,20.3432413 101.198687,20.3432413 C100.90277,20.3432413 99.8371275,20.3017145 99.5103781,20.3017145 L99.5103781,20.5785538 C100.078438,20.6850549 100.397753,20.896204 100.397753,21.4305277 L100.397753,29.184862 C100.397753,29.7354222 100.074375,29.9735128 99.4860707,30.0818035 L99.4860707,30.3579517 C99.8128132,30.3579517 100.806138,30.315734 101.099417,30.315734 C101.579411,30.315734 102.807815,30.3994785 103.845288,30.3994785 C107.440222,30.3994785 109.64241,28.2139986 109.64241,25.2663027 C109.64241,22.2318609 107.525039,20.2369527 104.039263,20.2369527 L104.03909,20.2366586 Z M50.4279885,20.2511871 C50.4279885,20.2511871 50.2726114,20.9094002 50.1396227,21.2298073 L47.0007195,28.9689043 C46.7743807,29.5194645 46.4335241,29.9305863 45.8134955,30.0804073 L45.8121124,30.3372114 L47.2323139,30.3157198 C47.4331178,30.3157198 48.2897371,30.3371759 48.6146885,30.3371759 L48.6167631,30.0804073 C48.0681008,29.9305757 47.92523,29.7082645 47.92523,29.4284663 C47.92523,29.2479547 48.0123874,28.979216 48.0846042,28.7896719 L48.7383104,27.1133991 L52.3937542,27.1133991 L53.1062408,28.7806713 C53.2075227,29.0225571 53.2906035,29.255506 53.2906035,29.4630867 C53.2906035,29.7067833 53.1377505,29.9585803 52.6551192,30.0804427 L52.6537361,30.3372114 C53.0139557,30.3372114 54.0785017,30.3157552 54.331257,30.3157552 C54.5857827,30.3157552 55.7023251,30.3372114 56.0607812,30.3372114 L56.0635474,30.0804427 C55.403894,29.9098566 55.1474735,29.5240357 54.9114533,28.9897049 L51.5920945,21.230764 C51.4608727,20.9103534 51.3037287,20.2507619 51.3037287,20.2507619 L50.4257929,20.2507619 L50.4251014,20.2507619 L50.4279885,20.2511871 Z M81.5248477,20.2511871 C81.5248477,20.2511871 81.3683261,20.9094002 81.2344591,21.2298073 L78.0948644,28.9689043 C77.870289,29.5194645 77.5283259,29.9305863 76.908332,30.0804073 L76.9062574,30.3372114 L78.3264588,30.3157198 C78.5290227,30.3157198 79.384539,30.3371759 79.709525,30.3371759 L79.709525,30.0804073 C79.161727,29.9305757 79.0193404,29.7082645 79.0193404,29.4284663 C79.0193404,29.2479547 79.1054155,28.979216 79.1793923,28.7896719 L79.8330985,27.1133991 L83.4871592,27.1133991 L84.2029997,28.7806713 C84.3025147,29.0225571 84.3853362,29.255506 84.3853362,29.4630867 C84.3853362,29.7067833 84.2353289,29.9585803 83.7491949,30.0804427 L83.7491949,30.3372114 C84.1085155,30.3372114 85.1745483,30.3157552 85.4246758,30.3157552 C85.6800763,30.3157552 86.7977839,30.3372114 87.1562055,30.3372114 L87.1562055,30.0804427 C86.4992145,29.9098566 86.2410652,29.5240357 86.0068084,28.9897049 L82.683992,21.230764 C82.5560583,20.9104278 82.3970057,20.250691 82.3970057,20.250691 L81.5197615,20.250691 L81.5248477,20.2511871 Z M61.6249462,20.2615686 C61.0894922,20.2615686 59.7295924,20.3425457 59.2504983,20.3425457 C58.9607528,20.3425457 57.9269386,20.3010189 57.5993248,20.3010189 L57.5993248,20.5785492 C58.2149275,20.6859504 58.4664381,20.9843557 58.4664381,21.4581982 L58.4664381,29.1565444 C58.4664381,29.6962968 58.1437999,29.9744649 57.5986332,30.0818697 L57.5986332,30.358018 C57.9262539,30.358018 58.9717759,30.3164912 59.2315503,30.3164912 C59.5371526,30.3164912 60.6037248,30.358018 60.9313386,30.358018 L60.9313386,30.0818697 C60.3430514,29.9537033 60.0237014,29.6728032 60.0237014,29.1565444 L60.0237014,25.7057364 C60.1875118,25.7246837 60.3280036,25.7455197 60.476863,25.7707923 C61.2307378,25.8989587 61.6419925,26.245627 61.9828492,26.6905896 C62.5156754,27.389199 63.4471705,28.8034623 63.9790977,29.4686561 C64.5973628,30.2349472 65.2317407,30.522045 66.0314296,30.522045 C66.402195,30.522045 66.887997,30.4651641 67.1909576,30.3974683 L67.1909576,30.1718438 C66.5577208,30.1420781 65.9652844,29.5000944 65.5046542,28.926076 C65.0422952,28.3511362 63.9015768,26.6768832 63.4867953,26.1777398 C63.1459594,25.770693 62.8080902,25.5686757 62.8080902,25.5686757 C64.301767,25.1968163 65.2757222,24.294028 65.2757222,22.9546043 C65.2757222,21.2550504 63.9702115,20.2616537 61.6247734,20.2616537 L61.6249462,20.2615686 Z M92.5257558,20.2615686 C91.9911662,20.2615686 90.6333064,20.3425457 90.1533479,20.3425457 C89.8609608,20.3425457 88.8306871,20.3010189 88.5021743,20.3010189 L88.5021743,20.5785492 C89.1160137,20.6859504 89.3665907,20.9843557 89.3665907,21.4581982 L89.3665907,29.1565444 C89.3665907,29.6962968 89.0444227,29.9744649 88.5001343,30.0818697 L88.5001343,30.358018 C88.827755,30.358018 89.8708912,30.3164912 90.1350914,30.3164912 C90.4424536,30.3164912 91.5067818,30.358018 91.8335312,30.358018 L91.8335312,30.0818697 C91.2452094,29.9537033 90.9245455,29.6728032 90.9245455,29.1565444 L90.9245455,25.7057364 C91.0909976,25.7246837 91.2297917,25.7455197 91.3804041,25.7707923 C92.1325155,25.8989587 92.5428367,26.245627 92.8836933,26.6905896 C93.4209108,27.389199 94.3491556,28.8034623 94.8819819,29.4686561 C95.4975846,30.2349472 96.1351089,30.522045 96.9356622,30.522045 C97.3029008,30.522045 97.791711,30.4651641 98.0911448,30.3974683 L98.0911448,30.1718438 C97.4614348,30.1420781 96.8694479,29.5000944 96.4062245,28.926076 C95.9456289,28.3511362 94.804461,26.6768832 94.3870171,26.1777398 C94.0488297,25.770693 93.7090035,25.5686757 93.7090035,25.5686757 C95.2035447,25.1968163 96.1746301,24.294028 96.1746301,22.9546043 C96.1746301,21.2550504 94.8737872,20.2616537 92.5257558,20.2616537 L92.5257558,20.2615686 Z M33.9321586,20.3010083 L33.9321586,20.5792331 C34.4139151,20.7073959 34.7135218,20.9194486 34.7135218,21.431207 L34.7135218,29.2270007 C34.7135218,29.7604102 34.3910115,29.9750425 33.9321586,30.0824473 L33.9321586,30.3371394 C34.1725874,30.3371394 35.2117022,30.3170688 35.4644576,30.3170688 C35.7559664,30.3170688 36.8449996,30.3371394 37.0845467,30.3371394 L37.0845467,30.0824473 C36.6046227,29.9545254 36.2854802,29.7606936 36.2854802,29.2270361 L36.2854802,25.5424606 L41.9515565,25.5424606 L41.9515565,29.2270361 C41.9515634,29.7604456 41.6277634,29.975078 41.1715763,30.0824828 L41.1715763,30.3371749 C41.4102451,30.3371749 42.4809942,30.3171042 42.7707465,30.3171042 C43.0226236,30.3171042 44.0850743,30.3371749 44.3219589,30.3371749 L44.3219589,30.0824828 C43.8419658,29.9543164 43.5223738,29.7397088 43.5223738,29.2270361 L43.5223738,21.4312424 C43.5223738,20.897833 43.8631198,20.685752 44.3219589,20.5792685 L44.3219589,20.3010083 C44.0850535,20.3010437 43.0226029,20.3432615 42.7707465,20.3432615 C42.4809942,20.3432615 41.4102589,20.3010437 41.1715763,20.3010437 L41.1715763,20.5792685 C41.6506704,20.6857697 41.9515565,20.8978259 41.9515565,21.4312424 L41.9515565,24.6875809 L36.2854802,24.6875809 L36.2854802,21.4312424 C36.2854802,20.897833 36.6255451,20.685752 37.0843738,20.5792685 L37.0843738,20.3010437 C36.8448233,20.3010437 35.7557659,20.3432615 35.4642847,20.3432615 C35.2115259,20.3432615 34.1723972,20.3010437 33.9319857,20.3010083 L33.9321586,20.3010083 Z M66.8712619,20.3217713 L66.8712619,20.6048401 C67.4296057,20.7311993 67.7584988,21.0854154 67.9733927,21.5710224 L71.8560052,30.4064915 L72.6522018,30.4064915 L76.1679559,21.902698 C76.5008599,21.1057199 76.8649521,20.7542713 77.4611919,20.5891068 L77.4611919,20.3219556 C77.1141806,20.3219556 76.2001122,20.3641733 75.9781646,20.3641733 C75.7324491,20.3641733 74.9641697,20.3219556 74.6471018,20.3219556 L74.6471018,20.5981038 C75.0443184,20.6820433 75.3278469,20.8953433 75.3278469,21.2085499 C75.3278469,21.4910553 75.1876974,21.8564513 75.0009904,22.3339082 L72.6089775,28.2339066 L70.0805597,22.3441845 C69.8163456,21.7349432 69.6746989,21.409894 69.6746989,21.1752406 C69.6746989,20.8421901 70.0351951,20.660293 70.351364,20.598033 L70.351364,20.3218847 C69.9955703,20.3218847 68.8799891,20.3641025 68.6360508,20.3641025 C68.3718437,20.3641025 67.219307,20.3218847 66.8714313,20.3218847 L66.8712619,20.3217713 Z M103.598583,20.8995814 C106.337538,20.8995814 107.94556,22.7375106 107.94556,25.3506252 C107.94556,27.8696942 106.421456,29.6755189 103.493125,29.6755189 C102.97527,29.6755189 102.319109,29.6348391 101.96418,29.5689363 L101.96418,21.0056112 C102.3411,20.9433335 103.040101,20.8997196 103.59848,20.8997196 L103.598583,20.8995814 Z M61.166114,20.9002901 C62.7725108,20.9002901 63.6546995,21.7369913 63.6546995,23.0935658 C63.6546995,24.0494009 63.0778572,25.130394 61.2451217,25.130394 C60.7897817,25.130394 60.3316411,25.1098415 60.0207624,25.0674147 L60.0207624,21.0054518 C60.3527813,20.942274 60.8349734,20.9002511 61.166114,20.9002511 L61.166114,20.9002901 Z M92.0703813,20.9002901 C93.6732512,20.9002901 94.5555782,21.7369913 94.5555782,23.0935658 C94.5555782,24.0494009 93.9802919,25.130394 92.1466919,25.130394 C91.692251,25.130394 91.2360466,25.1098415 90.9216411,25.0674147 L90.9216411,21.0054518 C91.2554268,20.942274 91.7357138,20.9002511 92.0703813,20.9002511 L92.0703813,20.9002901 Z M50.4988706,22.5966193 L52.0588655,26.3237174 L49.0441963,26.3237174 L50.4988361,22.5966193 L50.4988706,22.5966193 Z M81.5922722,22.5966193 L83.154964,26.3237174 L80.1396378,26.3237174 L81.5922722,22.5966193 Z M81.6152311,34.9735049 C80.5557332,34.9735049 79.8938324,35.5263684 79.8938324,36.417215 C79.8938324,37.3721289 80.8586247,37.788566 81.3491637,38.0394842 C82.0088171,38.3779493 82.5600381,38.6713333 82.5600381,39.2354299 C82.5600381,39.7805685 82.1301812,40.1254615 81.4511648,40.1254615 C81.1437957,40.1254615 80.7634352,40.041926 80.5212257,39.8659253 C80.2887254,39.708879 80.1222112,39.4384678 80.0464883,39.1405976 L79.9039944,39.1405976 L79.9188624,40.2472459 C80.2993439,40.2950838 80.7326585,40.5060911 81.4565899,40.5060911 C82.6728237,40.5060911 83.3380439,39.8745255 83.3380439,39.0035582 C83.3380439,38.0829458 82.5606225,37.6685639 81.8428803,37.3418139 C81.2052522,37.0502831 80.6421368,36.7530188 80.6421368,36.1645427 C80.6421368,35.7520743 80.9011782,35.3478624 81.5916463,35.3478624 C82.2090125,35.3478624 82.7727502,35.569061 82.961193,36.2053643 L83.105713,36.2053643 L83.115187,35.1256823 C82.6422476,35.1482653 82.3145646,34.9734198 81.6152864,34.9734198 L81.6152311,34.9735049 Z M72.47593,35.0046491 C72.3755332,35.0488725 72.202197,35.0607079 72.1018106,35.0607079 L68.8818597,35.0607079 L68.8818597,35.2095084 C69.2077205,35.265468 69.3397238,35.4222981 69.3397238,35.6732164 L69.3397238,39.7266747 C69.3397238,40.0118874 69.1709275,40.1584199 68.8811682,40.2152938 L68.8811682,40.3620177 C69.0458602,40.3620177 69.6146082,40.3384851 69.7678519,40.3384851 L71.3758046,40.3384851 C71.9359464,40.3384851 72.2317151,40.3389457 72.7257809,40.3841649 L72.868949,39.2830444 L72.7257809,39.2484382 C72.5610957,39.6491774 72.3687424,39.9322356 71.7046977,39.9322356 L70.1831867,39.9322356 L70.1831867,37.7417593 L71.2616671,37.7417593 C71.4140256,37.7417593 71.6084017,37.7602141 71.6911782,37.7819006 C71.9245672,37.8414711 72.0200472,38.0020892 72.0896396,38.2123701 L72.2321335,38.2123701 C72.2321335,38.0363695 72.2213455,37.6488406 72.2213455,37.539664 C72.2213455,37.4295484 72.2215979,37.0626323 72.2321335,36.9001609 L72.0896396,36.9001609 C72.0394378,37.1122632 71.9325095,37.250192 71.6911782,37.3043374 C71.6083983,37.3241812 71.4184341,37.3375581 71.2616671,37.3375581 L70.1831867,37.3375581 L70.1831867,35.4695796 L71.5811208,35.4695796 C72.2037771,35.4695796 72.3325752,35.738988 72.4550111,36.076553 L72.597505,36.076553 L72.6197723,35.0044896 L72.4759265,35.0044896 L72.47593,35.0046491 Z M87.1512991,35.0261052 L87.1540652,36.1182251 L87.2979075,36.1182251 C87.4291329,35.6344606 87.6933953,35.5223429 88.033353,35.5223429 L89.1402208,35.5223429 L89.1402208,39.7267562 C89.1402208,40.0119689 88.9888027,40.1532924 88.6708773,40.214702 L88.6708773,40.3621205 C88.8452612,40.3621205 89.4325664,40.3385878 89.569075,40.3385878 C89.7311254,40.3385878 90.283567,40.3621205 90.4544448,40.3621205 L90.4544448,40.214702 C90.1435592,40.1470062 89.9851013,39.9993503 89.9851013,39.7267562 L89.9851013,35.5223429 L91.0838436,35.5223429 C91.4370096,35.5223429 91.6900761,35.6452897 91.8212945,36.1182251 L91.9637884,36.1182251 L91.9665545,35.0261052 C91.6072339,35.0486882 91.3255033,35.0828586 89.5597082,35.0828586 C87.7939131,35.0828586 87.5116984,35.0486528 87.1515134,35.0261052 L87.1512991,35.0261052 Z M76.3211996,35.0288692 C76.038494,35.0288692 75.3205513,35.0724725 75.0677959,35.0724725 C74.913674,35.0724725 74.3678953,35.0503253 74.1952887,35.0503253 L74.1952887,35.1970493 C74.5202677,35.2539125 74.6518042,35.4107462 74.6518042,35.6607573 L74.6518042,39.7269724 C74.6518042,40.012185 74.4821297,40.1587176 74.1932486,40.2155915 L74.1932486,40.3623154 C74.3676256,40.3623154 74.918736,40.3387827 75.0569734,40.3387827 C75.217257,40.3387827 75.781873,40.3623154 75.9544796,40.3623154 L75.9544796,40.2155915 C75.643594,40.1478992 75.4743137,39.9995488 75.4743137,39.7269724 L75.4743137,37.9046702 C75.5623838,37.9145921 75.6358731,37.9266614 75.7133801,37.9392764 C76.1123255,38.0069722 76.3306079,38.1897694 76.5102682,38.4244228 C76.7920922,38.7926678 77.269779,39.5232754 77.5516133,39.8743696 C77.8783488,40.2778019 78.2125115,40.4301388 78.6334822,40.4301388 C78.8298776,40.4301388 79.0870588,40.3995686 79.2473561,40.3643884 L79.2473561,40.2453466 C78.9126922,40.2290924 78.6003578,39.8904254 78.3572839,39.587169 C78.1115684,39.283902 77.5219811,38.4164888 77.3044594,38.1538414 C77.1239139,37.9390319 76.9445164,37.8327079 76.9445164,37.8327079 C77.7345238,37.6368492 78.2478834,37.1593639 78.2478834,36.4526752 C78.2478834,35.5537139 77.5585632,35.0290216 76.3211685,35.0290216 L76.3211996,35.0288692 Z M46.6993459,35.0607044 L46.6993805,35.2067373 C46.9952944,35.2735296 47.1396796,35.4411285 47.1396796,35.6676813 L47.1396796,38.589722 C47.1396796,39.7720958 47.8836309,40.4410813 49.3182854,40.4410813 C50.8595051,40.4410813 51.5732018,39.7177733 51.5732018,38.4596031 L51.5732018,35.6572988 C51.5732018,35.4325567 51.714081,35.2843763 52.0337629,35.2067373 L52.0337629,35.0607044 C51.9122294,35.0607044 51.4403583,35.0828515 51.3091399,35.0828515 C51.1558962,35.0828515 50.7049475,35.0607044 50.585174,35.0607044 L50.585174,35.2067373 C50.9145546,35.2735296 51.0464265,35.4433822 51.0464265,35.6572988 L51.0464265,38.618779 C51.0464265,39.5746142 50.360564,39.9801372 49.4789977,39.9801372 C48.4556325,39.9801372 47.9669606,39.4632407 47.9669606,38.5516643 L47.9669606,35.6676813 C47.9669606,35.4275992 48.1104191,35.2626899 48.3843008,35.2067373 L48.3843008,35.0607044 C48.2204905,35.0607044 47.6940471,35.0828515 47.5610653,35.0828515 C47.4078215,35.0828515 46.8631701,35.0607044 46.6993459,35.0607044 Z M53.2845042,35.0607044 L53.2845042,35.2074283 C53.5839414,35.2904641 53.7592416,35.4420215 53.7592416,35.78049 L53.7592416,39.765558 C53.7592416,39.9776603 53.6268442,40.1506348 53.2939436,40.2147375 L53.2939436,40.3621559 C53.4154805,40.3621559 53.8712008,40.3386233 54.005047,40.3386233 C54.159169,40.3386233 54.5926081,40.3621559 54.7141451,40.3621559 L54.7141451,40.2147375 C54.3847679,40.1479488 54.263715,39.9794781 54.263715,39.765558 L54.263715,36.2538364 L57.2810812,39.8554931 C57.6500833,40.2697687 57.8914975,40.4105182 58.0192236,40.4403194 L58.2224963,40.4403194 L58.2224963,35.6572456 C58.2224963,35.4325035 58.3784924,35.2849965 58.6999653,35.2073929 L58.6999653,35.0606193 C58.576665,35.060669 58.1118856,35.0828161 57.9780394,35.0828161 C57.8230323,35.0828161 57.3896139,35.060669 57.2689414,35.060669 L57.2689414,35.2073929 C57.598322,35.273278 57.7295024,35.4433432 57.7295024,35.6572456 L57.7295024,39.1225822 L54.3582787,35.0606193 C54.2200032,35.0786666 54.0147493,35.081381 53.8835412,35.081381 C53.7382259,35.081381 53.4536151,35.0723343 53.2845042,35.0606193 L53.2845042,35.0607044 Z M62.6302279,35.060669 L62.6302279,35.2088138 C62.9243853,35.2756025 63.0976005,35.4634634 63.2103204,35.7189068 L65.2572237,40.3807914 L65.6779524,40.3807914 L67.5337506,35.8939578 C67.7116475,35.4742606 67.9025797,35.2963393 68.2178497,35.2087784 L68.2178497,35.060669 C68.0329026,35.060669 67.5515921,35.0835071 67.434481,35.0835071 C67.3067756,35.0835071 66.895431,35.060669 66.72808,35.060669 L66.72808,35.2053164 C66.9385619,35.2486433 67.085326,35.3635639 67.085326,35.5278354 C67.085326,35.6767599 67.0131092,35.8707405 66.9144689,36.1216623 L65.6529742,39.2354086 L64.3192144,36.1278989 C64.1774225,35.8056811 64.1037846,35.6339291 64.1037846,35.5084877 C64.1037846,35.3324835 64.2943745,35.2387426 64.4617221,35.2053483 L64.4617221,35.0607008 C64.2732517,35.0607008 63.7169064,35.083539 63.5892148,35.083539 C63.4500645,35.083539 62.813453,35.0607008 62.6302279,35.060669 Z M92.3477967,35.0607044 L92.3478243,35.2074283 C92.6085081,35.3058077 92.7881926,35.5139518 93.022484,35.9119909 L94.3420674,38.08032 L94.3420674,39.7545022 C94.3420674,39.9332136 94.1975474,40.1587849 93.8963398,40.2147375 L93.8963398,40.3628469 C94.085685,40.3628469 94.6095178,40.3379323 94.7425342,40.3379323 C94.9010613,40.3379323 95.4481746,40.3628469 95.6164246,40.3628469 L95.6164246,40.2147375 C95.3152239,40.1587778 95.1821764,39.9332066 95.1821764,39.7545022 L95.1821764,38.0740834 L96.3444014,36.0829314 C96.5725036,35.6912282 96.8068296,35.3540955 97.1811219,35.1970457 L97.1811219,35.0607044 C97.0181863,35.0607044 96.6185943,35.0828515 96.5085022,35.0828515 C96.3984171,35.0828515 96.0505344,35.0607044 95.8858458,35.0607044 L95.8858458,35.2074283 C96.0522979,35.2300113 96.1228861,35.3135503 96.1228861,35.4164406 C96.1228861,35.5292635 96.0531657,35.7010438 95.9554037,35.87253 L94.9795468,37.5923884 C94.9795468,37.5923884 94.0462883,36.0043143 93.9679031,35.87253 C93.8877578,35.7389526 93.8071735,35.5851345 93.8071735,35.4642076 C93.8071735,35.3297231 93.8898878,35.2390296 94.0651499,35.2074389 L94.0651499,35.060715 C93.8669876,35.060715 93.3196081,35.0828622 93.1892541,35.0828622 C93.0439423,35.0828622 92.535375,35.060715 92.3477967,35.0607044 Z M60.190845,35.0669339 L60.190845,35.2129669 C60.5008489,35.2806592 60.65884,35.4297076 60.65884,35.7022947 L60.65884,39.726696 C60.65884,40.0119086 60.5072179,40.1532322 60.1901534,40.2146418 L60.1901534,40.3620603 C60.3627704,40.3620603 60.9459991,40.3385276 61.0842711,40.3385276 C61.2454398,40.3385276 61.7961353,40.3620603 61.9696409,40.3620603 L61.9696409,40.2146418 C61.6587553,40.146946 61.5002974,39.9992901 61.5002974,39.726696 L61.5002974,35.7022947 C61.5002974,35.417082 61.6614039,35.280684 61.9696409,35.2129669 L61.9696409,35.0669339 C61.7952639,35.0669339 61.2207797,35.0890811 61.0842711,35.0890811 C60.9222242,35.0890811 60.3625526,35.0669339 60.1908104,35.0669339 L60.190845,35.0669339 Z M84.6133727,35.0669339 L84.6133727,35.2129669 C84.9233766,35.2806592 85.0840647,35.4297076 85.0840647,35.7022947 L85.0840647,39.726696 C85.0840647,40.0119086 84.9304129,40.1532322 84.6133727,40.2146418 L84.6133727,40.3620603 C84.786868,40.3620603 85.3707743,40.3385276 85.5081819,40.3385276 C85.6702254,40.3385276 86.221602,40.3620603 86.3942087,40.3620603 L86.3942087,40.2146418 C86.0824413,40.146946 85.9248652,39.9992901 85.9248652,39.726696 L85.9248652,35.7022947 C85.9248652,35.417082 86.0850899,35.280684 86.3942087,35.2129669 L86.3942087,35.0669339 C86.2198317,35.0669339 85.6446905,35.0890811 85.5081819,35.0890811 C85.3452533,35.0890811 84.7868783,35.0669339 84.6133727,35.0669339 Z M76.0812377,35.3666113 C76.9284694,35.3666113 77.3954271,35.8089518 77.3954271,36.5237906 C77.3954271,37.0292415 77.0898559,37.6007086 76.12107,37.6007086 C75.8824011,37.6007086 75.6387948,37.5893799 75.4741062,37.5667969 L75.4741062,35.4226702 C75.6511248,35.3892652 75.9059686,35.3666113 76.0812377,35.3666113 Z" id="logo" fill="#181718" fill-rule="nonzero" transform="translate(71.787198, 30.371375) scale(-1, -1) rotate(-180.000000) translate(-71.787198, -30.371375) "></path>
            </g>
        </g>
    </g>
</svg>