<?xml version="1.0" encoding="UTF-8"?>
<svg width="115px" height="61px" viewBox="0 0 115 61" version="1.1" xmlns="http://www.w3.org/2000/svg" xmlns:xlink="http://www.w3.org/1999/xlink">
    <g id="-assets" stroke="none" stroke-width="1" fill="none" fill-rule="evenodd">
        <g id="Artboard" transform="translate(-579.000000, -337.000000)" fill="#4C82C2">
            <g id="logo-ibm" transform="translate(579.000000, 337.000000)">
                <path d="M30.0009544,21.5643702 L30.0009544,20.0006394 L40.5098197,20.0006394 L40.5098197,21.5643702 L30.0009544,21.5643702 Z M84,24.4989521 L73.9808034,24.4989521 C73.9808034,24.4989521 74.527504,22.9433597 74.5246236,22.9427784 L84,22.9427784 L84,24.4989521 Z M69.9625824,24.5009285 L60.0372869,24.5009285 L60.0372869,22.9424296 L69.4193383,22.9424296 L69.9625824,24.5009285 Z M58.1776406,22.9420809 C58.3769646,23.4559611 58.6131577,23.8954334 58.6131577,24.4982545 L41.8751311,24.4982545 L41.8751311,22.9420809 L58.1776406,22.9420809 Z M30.0009544,24.4982545 L30.0009544,22.9420809 L40.5098197,22.9420809 L40.5098197,24.4982545 L30.0009544,24.4982545 Z M72.9565894,27.4404516 L73.5067465,25.8773022 L81.0292091,25.8790462 L81.0292091,27.4369638 L72.9565894,27.4404516 Z M70.4452229,25.8764884 L70.9930757,27.4402191 L62.9964986,27.4402191 L62.9964986,25.8764884 L70.4452229,25.8764884 Z M58.7455987,25.8761977 C58.7455987,26.4127492 58.6787733,26.9713906 58.5243836,27.4405098 L53.9416612,27.4405098 L53.9416612,25.8761977 L58.7455987,25.8761977 Z M32.9303251,27.4402772 L32.9303251,25.8841036 L37.4473744,25.8841036 L37.4473744,27.4402772 L32.9303251,27.4402772 Z M44.9156854,27.4396959 L44.9156854,25.8759652 L49.4246695,25.8759652 L49.4246695,27.4396959 L44.9156854,27.4396959 Z M67.4382541,29.1290483 C67.4382541,29.1290483 67.4399824,30.3126006 67.4388302,30.3155072 L62.9966714,30.3155072 L62.9966714,28.7587459 L71.4616022,28.7587522 L71.9869878,30.2097083 C71.9892922,30.2102896 72.4939389,28.7552643 72.4950911,28.7587522 L81.0262711,28.7587459 L81.0262711,30.3155072 L76.6060034,30.3155072 C76.6060034,30.3126006 76.603123,29.1290483 76.603123,29.1290483 L76.1946817,30.3155072 L67.8466954,30.3126006 L67.4382541,29.1290483 Z M44.9156854,28.7586359 L57.8596441,28.7586359 L57.8596441,28.7574733 C57.5773645,29.2789107 57.0629244,29.9131226 56.5761361,30.3153909 C56.5761361,30.3153909 44.9151093,30.3171348 44.9151093,30.3153909 C44.9151093,30.3124843 44.9156854,28.7609612 44.9156854,28.7586359 Z M32.9303251,30.3148677 L32.9303251,28.7581128 L37.4473744,28.7581128 L37.4473744,30.3148677 L32.9303251,30.3148677 Z M76.6058882,33.2493334 L76.6058882,31.6931597 L81.0261559,31.6931597 L81.0261559,33.2493334 L76.6058882,33.2493334 Z M67.4382541,31.6929853 C67.444591,31.6929853 67.4399824,33.2485777 67.4399824,33.249159 C67.4399824,33.2503216 62.9943671,33.2485777 62.9966714,33.249159 L62.9966705,31.6929853 L67.4382541,31.6929853 Z M75.713251,31.6929813 C75.6930882,31.6900788 75.1959305,33.2485777 75.1746155,33.249159 L68.8786289,33.2520656 C68.8734441,33.2497403 68.3250152,31.6900788 68.3244392,31.6929813 L75.713251,31.6929813 Z M44.9145908,31.692404 L56.5537266,31.692404 C57.084873,32.1400147 57.5653244,32.6905176 57.940929,33.249159 C57.962244,33.2485777 44.9151669,33.2503216 44.9151669,33.249159 C44.9151669,33.2485777 44.9145908,31.6935667 44.9145908,31.692404 Z M37.4466255,33.2490427 C37.4443211,33.2490427 32.9364892,33.2484614 32.9376413,33.2484614 C32.9387935,33.2484614 32.9376411,31.6922878 32.9376411,31.6922878 L37.4466255,31.6922878 L37.4466255,33.2490427 Z M76.6058882,36.1843804 L76.6058882,34.6276254 L81.0255798,34.6276254 L81.0255798,36.1843804 L76.6058882,36.1843804 Z M62.9965562,36.1837991 L62.9965562,34.6276254 L67.4381389,34.6276254 L67.4381389,36.1837991 L62.9965562,36.1837991 Z M74.1408386,36.1913561 C74.1396864,36.1977506 69.8905147,36.1837991 69.8905147,36.1837991 C69.8905147,36.1837991 69.3322925,34.6264628 69.3420858,34.6276254 L74.6944522,34.6276239 C74.685811,34.6258815 74.1419908,36.1837991 74.1408386,36.1913561 Z M44.9151669,36.1833921 C44.9151669,36.1897866 44.9145908,34.6272185 44.9151669,34.6266372 L49.4915525,34.6266372 C49.4915525,34.6266372 49.4955851,36.1839734 49.4915525,36.1839734 C49.4875199,36.1839734 44.9151669,36.1816482 44.9151669,36.1833921 Z M58.5832591,34.6268116 C58.8044741,35.0959308 58.8269413,35.6545721 58.8712995,36.1905423 L54.0224277,36.1905423 L54.0224277,34.6268116 L58.5832591,34.6268116 Z M32.9378141,36.1832177 L32.9378141,34.6270441 L37.4467983,34.6270441 L37.4467983,36.1832177 L32.9378141,36.1832177 Z M76.6058882,39.0583895 L76.6058882,37.5010533 L83.9993087,37.5010533 L83.9993087,39.0583895 L76.6058882,39.0583895 Z M60.0372293,39.0583895 L60.0372293,37.5010533 L67.4381389,37.5010533 L67.4381389,39.0583895 L60.0372293,39.0583895 Z M73.1461775,39.058157 L70.888517,39.058157 L70.3470011,37.5008207 L73.6681067,37.5008207 L73.1461775,39.058157 Z M30.0005983,37.5009951 C29.9885111,37.5009951 40.5065936,37.5021577 40.501985,37.5021577 C40.4973764,37.5021577 40.5065936,39.0600753 40.501985,39.0577501 L30.0005983,39.0577527 L30.0005983,37.5009951 Z M58.6788885,37.5009951 C58.568281,38.0148754 58.4668908,38.6403677 58.0953187,39.0583314 L57.9564832,39.0577501 L41.8746126,39.0577501 L41.8746126,37.5009951 L58.6788885,37.5009951 Z M72.1228853,41.9959362 L71.9154962,41.9959362 L71.3878062,40.4356933 L72.6644012,40.4356933 L72.1228853,41.9959362 Z M76.6058882,41.9992496 L76.6058882,40.4361002 L83.9993087,40.4361002 L83.9993087,41.9992496 L76.6058882,41.9992496 Z M41.8721355,41.9959362 L41.8721355,40.4380186 C41.8721355,40.4380186 57.0443746,40.4397625 57.0881567,40.4397625 C56.0696459,41.4233433 54.672074,41.9779155 53.1667749,41.999424 L41.8744398,41.9959362 L41.8721355,41.9959362 Z M60.0372293,41.9992496 L60.0372293,40.4361002 L67.4381389,40.4361002 L67.4381389,41.9992496 L60.0372293,41.9992496 Z M40.502273,40.4427853 C40.502273,40.4427853 40.4976644,41.9960524 40.502273,41.9960524 C40.5068817,41.9960524 30.0032011,42.0024469 30.0008968,41.998959 C29.9980164,41.9960524 30.0032011,40.4381348 30.0008968,40.4381348 C29.9980164,40.4381348 40.4976644,40.4474358 40.502273,40.4427853 Z M53.4098234,20.0005813 C54.7855043,20.1342832 55.9808719,20.6289802 56.9993826,21.5672186 C56.9993826,21.5672186 41.8720779,21.5683812 41.8720779,21.5672186 L41.8720779,20 L53.4098234,20.0005813 Z M60.0378054,20.0005813 L68.3834874,20 L68.9301881,21.5672186 C68.9342207,21.5648933 60.0406858,21.5695438 60.0406858,21.5672186 C60.0406858,21.5648933 60.0355011,20.0005813 60.0378054,20.0005813 Z M75.5652559,20.0011045 L83.9996544,20.0011045 L83.9996544,21.5648352 L75.0110662,21.5648352 L75.5652559,20.0011045 Z" id="logo"></path>
            </g>
        </g>
    </g>
</svg>