<?xml version="1.0" encoding="UTF-8"?>
<svg width="115px" height="61px" viewBox="0 0 115 61" version="1.1" xmlns="http://www.w3.org/2000/svg" xmlns:xlink="http://www.w3.org/1999/xlink">
    <g id="-assets" stroke="none" stroke-width="1" fill="none" fill-rule="evenodd">
        <g id="Artboard" transform="translate(-609.000000, -529.000000)">
            <g id="logo-shopify" transform="translate(609.000000, 529.000000)">
                <g id="logo" transform="translate(12.000000, 18.000000)">
                    <path d="M10.2662454,0.874920312 C10.407326,0.874920312 10.549628,0.922451562 10.685619,1.01588906 C9.63799933,1.50765469 8.51525884,2.74651406 8.04112237,5.21976406 C7.34813803,5.43385781 6.67103289,5.64327969 6.04461902,5.83685781 C6.60018725,3.95023281 7.91877114,0.874920312 10.2662454,0.874920312 M11.2375228,1.79182656 C11.4384557,2.29435781 11.5689501,3.01545156 11.5689501,3.98862344 C11.5689501,4.03838906 11.568543,4.08409219 11.5683394,4.12999844 C10.772751,4.37577969 9.90855638,4.64288906 9.04232595,4.91040469 C9.52888076,3.03759219 10.4403058,2.13307656 11.2375228,1.79182656 M13.6483103,3.48771719 C13.2855318,3.59984219 12.8728763,3.72720156 12.4254087,3.86532656 C12.4258159,3.77940469 12.426223,3.69490469 12.426223,3.60227969 C12.426223,2.79587344 12.3142544,2.14668594 12.1340866,1.63217031 C12.8572007,1.72276406 13.338666,2.54338906 13.6483103,3.48771719 M19.5179121,4.92340469 C19.5004043,4.79624844 19.3890463,4.72576406 19.2966213,4.71804531 C19.2046034,4.71052969 17.2567555,4.56651406 17.2567555,4.56651406 C17.2567555,4.56651406 15.9039702,3.22649844 15.7555609,3.07821719 C15.6069479,2.92993594 15.3170508,2.97482656 15.2044714,3.00793594 C15.1875743,3.01281094 14.908874,3.09873281 14.4471559,3.24112344 C13.9952096,1.94396719 13.197789,0.751623437 11.7949233,0.751623437 C11.7560396,0.751623437 11.7163416,0.753045312 11.6762365,0.755279687 C11.2772208,0.228779687 10.78293,6.09375e-05 10.3560239,6.09375e-05 C7.08775996,6.09375e-05 5.5265094,4.07677969 5.03690089,6.14824844 C3.7667689,6.54088906 2.8647085,6.81998281 2.74927897,6.85613906 C2.04041544,7.07815469 2.0180217,7.10029531 1.92518949,7.76674844 C1.85495459,8.27131094 -6.10738255e-05,22.5837016 -6.10738255e-05,22.5837016 L14.4530597,25.2856703 L22.2843528,23.5952641 C22.2843528,23.5952641 19.5354199,5.05056094 19.5179121,4.92340469" id="Fill-1" fill="#95BE46"></path>
                    <path d="M19.2967027,4.71804531 C19.2046848,4.71052969 17.2566333,4.56651406 17.2566333,4.56651406 C17.2566333,4.56651406 15.9040517,3.22649844 15.7554387,3.07821719 C15.7002687,3.02276406 15.6251479,2.99473281 15.5467698,2.98234219 L14.4539555,25.2854672 L22.2844342,23.5952641 C22.2844342,23.5952641 19.5355013,5.05056094 19.5179935,4.92340469 C19.5004857,4.79624844 19.3889242,4.72576406 19.2967027,4.71804531" id="Fill-4" fill="#5E8D3E"></path>
                    <path d="M11.7948826,9.03562969 L10.8293054,11.9015203 C10.8293054,11.9015203 9.98322931,11.4509891 8.94619575,11.4509891 C7.42566107,11.4509891 7.34931879,12.4030359 7.34931879,12.6429266 C7.34931879,13.9518641 10.7688423,14.4533797 10.7688423,17.5193484 C10.7688423,19.9314578 9.23568568,21.4847547 7.16792953,21.4847547 C4.68690716,21.4847547 3.4184038,19.9440516 3.4184038,19.9440516 L4.08247987,17.7541609 C4.08247987,17.7541609 5.38660962,18.8713484 6.48736353,18.8713484 C7.20620246,18.8713484 7.49874609,18.3064578 7.49874609,17.8937078 C7.49874609,16.1862391 4.69321812,16.1100672 4.69321812,13.3045047 C4.69321812,10.9431766 6.39188479,8.65802031 9.82097651,8.65802031 C11.1422069,8.65802031 11.7948826,9.03562969 11.7948826,9.03562969" id="Fill-6" fill="#FEFEFE"></path>
                    <path d="M61.0255161,18.8612125 C60.2258562,18.8612125 59.7537555,18.4161656 59.7537555,18.4161656 L60.2667756,15.543775 C60.6238539,13.6289156 61.6281112,12.3597906 62.6993461,12.3597906 C63.6362186,12.3597906 63.9265228,13.2283531 63.9265228,14.0518219 C63.9265228,16.0335094 62.7437264,18.8612125 61.0255161,18.8612125 M63.9711067,9.82174375 C66.2249345,9.82174375 67.1396168,11.669775 67.1396168,13.7402281 C67.1396168,17.480775 64.7744311,21.1766344 61.1594714,21.1766344 C59.9842074,21.1766344 59.3518897,20.7760719 59.3518897,20.7760719 L59.2849121,20.7760719 L58.4370038,25.3179469 L55.3574579,25.3179469 L57.4999277,14.0743688 C57.7454445,12.8052438 57.9907577,11.1130094 58.124713,9.99988438 L60.846977,9.99988438 L60.6684378,11.6474313 L60.7132253,11.6474313 C60.7132253,11.6474313 61.8927644,9.82174375 63.9711067,9.82174375 Z M71.535894,5.41330156 C72.4731736,5.41330156 73.0757687,6.05903594 73.0757687,6.94953594 C73.0535785,8.08500469 72.2276568,8.73073906 71.2683906,8.73073906 L71.2236031,8.73073906 C70.3533011,8.73073906 69.7733034,8.10734844 69.7733034,7.19450469 C69.7733034,6.19248906 70.554234,5.41330156 71.535894,5.41330156 Z M67.2293139,20.9541516 L69.3046025,10.0666516 L72.4063385,10.0666516 L70.3088597,20.9541516 L67.2293139,20.9541516 Z M80.2387105,10.0443078 L79.8146546,12.3597297 L77.6945785,12.3597297 L76.0657396,20.9541516 L72.9861937,20.9541516 L74.6152362,12.3597297 L73.1871266,12.3597297 L73.6335763,10.0443078 L75.0614823,10.0443078 L75.1508537,9.53222969 C75.3963705,8.24076094 75.8872004,6.94969844 76.9360416,6.05899531 C77.7615562,5.34643281 78.8549812,5.03463594 79.9484063,5.03463594 C81.0864152,5.03463594 81.6220327,5.30174531 81.6220327,5.30174531 L81.0194376,7.70633906 C81.0194376,7.70633906 80.586017,7.55074531 80.0377776,7.55074531 C79.0113302,7.55074531 78.3863414,8.48572969 78.2078022,9.53222969 L78.0964443,10.0443078 L80.2387105,10.0443078 Z M87.6471081,10.0667328 L90.8604056,10.0667328 L87.0893004,18.1265297 C85.7505622,20.8874047 84.4562043,22.9133734 83.0502848,24.2271859 C81.9570633,25.2513422 80.6625018,25.7632172 80.0377166,25.8970766 L79.1900119,23.2917953 C79.7032356,23.1136547 80.350211,22.8465453 80.9304123,22.4234359 C81.6445689,21.9339047 82.247164,21.2660297 82.6042423,20.5756078 C82.6934101,20.4198109 82.7156002,20.2861547 82.6712199,20.0635297 L80.8188508,10.0667328 L84.0545421,10.0667328 C84.0545421,10.0667328 84.7540409,16.6973422 84.8132826,17.5476234 L84.8578664,17.5476234 C85.7222647,14.9059828 87.6471081,10.0667328 87.6471081,10.0667328 Z M31.4134443,14.4081234 C32.6186345,15.0983422 33.6226881,16.0335297 33.6226881,17.3473422 C33.6226881,19.7962172 31.6367709,21.1545141 28.8697195,21.1545141 C26.9660483,21.1545141 25.8349611,20.3974672 25.8349611,20.3974672 L26.593498,18.2154984 C26.593498,18.2154984 27.8186389,18.8835766 29.1152362,18.8835766 C29.9853347,18.8835766 30.4539745,18.4159828 30.4539745,17.8370766 C30.4539745,17.2805141 30.1194935,16.9016859 29.1820103,16.3674672 C28.0216076,15.6995922 27.1513056,14.7644047 27.1513056,13.5399672 C27.1513056,11.3803422 29.014668,9.84390469 31.7037485,9.84390469 C33.6355136,9.84390469 34.2922609,10.3561859 34.2922609,10.3561859 L33.5781043,12.5379516 C33.5781043,12.5379516 32.6727866,12.1150453 31.6589611,12.1150453 C30.7886591,12.1150453 30.2308515,12.5158109 30.2308515,13.1392016 C30.2308515,13.6289359 30.6325136,13.9852172 31.4134443,14.4081234 Z M42.4369644,9.82174375 C44.0438168,9.82174375 44.9587027,10.8680406 44.9587027,12.6047594 C44.9587027,13.1391813 44.8693313,13.9405094 44.7355796,14.6085875 L43.5305931,20.9542125 L40.4510472,20.9542125 L41.6114499,14.8090719 C41.7008213,14.3859625 41.7454051,13.8736813 41.7454051,13.450775 C41.7454051,12.7829 41.4774946,12.3153063 40.7859353,12.3153063 C39.8038682,12.3153063 38.7552306,13.5620875 38.3533649,15.5884625 L37.3269174,20.9542125 L34.2475752,20.9542125 L37.2377497,5.25732188 L40.3172955,5.25732188 L39.1344991,11.4248063 L39.179083,11.4469469 C40.0048011,10.4674781 41.0758324,9.82174375 42.4369644,9.82174375 Z M50.4035971,18.8167687 C49.3549595,18.8167687 48.9085098,17.9260656 48.9085098,16.8129406 C48.9085098,15.0540812 49.8233957,12.1816906 51.4970221,12.1816906 C52.5904472,12.1816906 52.9473219,13.1168781 52.9473219,14.0297219 C52.9473219,15.9224406 52.0326396,18.8167687 50.4035971,18.8167687 M51.9210781,9.82178437 C48.216747,9.82178437 45.7621899,13.1613625 45.7621899,16.8795656 C45.7621899,19.2618156 47.2348834,21.176675 50.0017313,21.176675 C53.6392884,21.176675 56.0936418,17.9260656 56.0936418,14.1186906 C56.0936418,11.9147844 54.7996911,9.82178437 51.9210781,9.82178437" id="Fill-14" fill="#231F20"></path>
                </g>
            </g>
        </g>
    </g>
</svg>