<?xml version="1.0" encoding="UTF-8"?>
<svg width="115px" height="61px" viewBox="0 0 115 61" version="1.1" xmlns="http://www.w3.org/2000/svg" xmlns:xlink="http://www.w3.org/1999/xlink">
    <g id="-assets" stroke="none" stroke-width="1" fill="none" fill-rule="evenodd">
        <g id="Artboard" transform="translate(-405.000000, -486.000000)" fill="#000000" fill-rule="nonzero">
            <g id="logo-three" transform="translate(405.000000, 486.000000)">
                <path d="M49.6315789,28.0867323 L49.6315789,28.0699228 C49.6331182,28.0660968 49.6315789,28.0645418 49.6315789,28.06 L49.6315789,28.0867324 Z M69.6139215,27.0459832 C69.1919186,26.7305021 68.6769004,26.3469192 68.4969321,26.1383679 C68.5952984,25.9511425 68.8251618,25.6019691 69.024777,25.3140107 C70.0298922,23.8310729 71.9053721,21.0698863 71.9053721,17.1138556 C71.9053721,12.5962412 68.6345837,7.32 59.4204343,7.32 C55.0576045,7.32 50.1185373,8.7746325 45.864686,11.3141695 C42.0464034,13.5948316 39.5779916,16.2520216 39.5779916,18.0825844 C39.5779916,18.5188422 39.745112,18.9191602 40.0619806,19.2385679 C41.2560799,20.4411029 44.5859064,20.4128202 48.4404892,20.4128202 C54.1706033,20.4128202 56.5323023,20.7298563 56.5323023,21.6505282 C56.5323023,22.7660035 49.7775232,25.514888 49.7775232,27.9124024 C49.7775232,30.6872568 55.4479072,31.2037099 58.0145929,31.6668002 C60.4338566,32.1053292 60.6811599,33.4277726 60.6811599,34.3354702 C60.6811599,36.0323667 60.0625467,37.5396966 58.9379814,38.5764596 C57.8746921,39.5582494 56.5580875,40.1816627 54.6281395,40.0915369 C55.2407172,35.6312097 52.112053,32.622583 47.560969,32.622583 C42.4185115,32.622583 39.3421053,36.9262387 39.3421053,41.0847368 C39.3421053,47.6446173 45.3390792,54.29 56.803136,54.29 C61.3390503,54.29 65.924961,52.7787456 69.3817265,50.1436811 C72.2441269,47.9631589 75.6578947,43.9964038 75.6578947,37.4832101 C75.6578947,31.5476022 71.7254206,28.6198542 69.6139382,27.0460012 L69.6139215,27.0459832 Z M51.1095364,28.4615235 L51.0991371,28.4615235 C51.123748,27.7177909 53.0729784,26.4193534 54.3664585,25.5605414 C56.2686151,24.2948295 57.7697861,23.2959175 57.7697861,22.0823369 C57.7697861,21.5922795 57.5890891,21.1425859 57.2447769,20.785507 C55.9535015,19.4451462 52.3239196,19.4583398 48.4814438,19.4762643 C47.0826686,19.4800846 45.5979333,19.526004 44.1842105,19.4000084 C45.6248413,18.9021588 47.3746551,17.9257597 49.3089998,16.8506717 C52.1394769,15.2737564 55.2992766,13.5140944 58.2626953,12.81 C57.4762795,13.6283803 56.9601981,14.6171887 56.9601981,15.4215728 C56.9601981,15.7498946 57.1536116,16.1007373 57.6928321,16.1007373 C58.1693429,16.1007373 58.7317279,15.9086149 59.3822049,15.6852517 C61.1013517,15.1010433 63.3941537,14.3223735 65.9736842,16.2951974 C65.0909,16.2913017 64.3650024,16.5449765 63.9535337,16.878702 C63.5576356,17.1992327 63.4732827,17.5445959 63.4732827,17.7748453 C63.4732827,18.1467242 63.742097,18.4610474 64.1125401,18.8974693 C64.6928755,19.5789463 65.4867001,20.5117147 65.4867001,21.9975954 C65.4867001,23.2290774 64.9885945,24.5088097 64.2723897,25.4189492 C64.3799057,24.6176849 64.2470308,23.4329293 63.7883984,22.8891329 C63.5733901,22.6347286 63.2902928,22.5001379 62.9698914,22.5001379 C62.447174,22.5001379 61.9400447,22.9411598 61.1678379,23.6079332 C60.624853,24.0754709 59.9512126,24.6573931 59.0968808,25.2330068 C56.5606501,26.9328555 53.680105,28.67 51.5666088,28.67 C51.441141,28.67 51.1095211,28.6341844 51.1095211,28.4615401 L51.1095364,28.4615235 Z M54.3437405,41.330075 C56.6202498,41.4524563 58.480809,40.8427003 59.8957044,39.5558606 C61.2795526,38.2984656 62.0712737,36.4177265 62.0712737,34.3971926 C62.0712737,33.2523785 61.6651724,32.4325811 60.7678952,31.72 C64.1344523,32.4083652 67.7461829,34.1228896 69.6052632,36.8061384 C68.6389728,36.471367 68.0377534,36.381455 67.4061759,36.381455 C66.9234111,36.381455 66.4922199,36.9104291 66.4922199,37.5458432 C66.4922199,37.8700191 66.6212928,38.2666766 66.7867103,38.7692097 C67.2930188,40.3219986 68.1090467,42.82094 65.9950093,45.9719115 C66.0367992,44.6706953 65.7019654,43.6264388 65.2845342,43.1095191 C64.9937468,42.7506522 64.6984475,42.6743628 64.501883,42.6743628 C63.8483293,42.6743628 63.5082473,43.2901248 63.0345513,44.1424986 C62.1805586,45.6817697 60.7861425,48.1851724 56.3925507,49.41 C57.0187602,48.4549026 57.2335944,47.4302312 57.0058841,46.8763497 C56.8928021,46.6020489 56.6657775,46.4366284 56.3963512,46.4366284 L56.3795764,46.4366284 C55.9575335,46.4546937 55.4330034,46.6036115 54.8227108,46.7728397 C52.8422315,47.3252256 49.9212373,48.1367483 46.9031016,45.7202618 C47.516509,45.6711679 48.0463365,45.485216 48.4045953,45.1769814 C48.6634761,44.9563389 48.8054485,44.6820381 48.8054485,44.4085181 C48.8054485,43.9966754 48.4630865,43.6785535 48.0280947,43.2765301 C47.1665481,42.4823853 46.0309097,41.4298085 46.9410944,39.2422881 C47.0609943,39.7198491 47.2819607,40.1482923 47.5931523,40.4897791 C47.9590334,40.8940287 48.3993225,41.1252657 48.8038822,41.1252657 C49.6958878,41.1252657 49.6958878,40.3704249 49.6958878,39.8717742 C49.6958878,39.2150731 50.2970085,38.6400316 50.9809921,38.6400316 C52.9220097,38.6400316 53.6536756,41.4932894 53.0092243,43.0415947 C53.6536801,42.5443327 54.1532436,41.8121943 54.343751,41.3300951 L54.3437405,41.330075 Z M68.6600654,49.1731523 C65.4042357,51.6493113 61.0820335,53.07 56.7986576,53.07 C46.1352585,53.07 40.5526316,47.0632199 40.5526316,41.1331383 C40.5526316,37.6070489 43.1594982,33.9343488 47.5091078,33.9343488 C50.0786977,33.9343488 54.0799608,35.208506 53.5793411,40.254301 C53.5048754,39.7430701 52.8461361,37.9470938 50.9010312,37.9470938 C49.8178123,37.9470938 48.9019322,38.8466567 48.9019322,39.9135764 C48.9019322,40.3479094 48.8015386,40.4692447 48.7193313,40.4692447 C48.0005036,40.4692447 47.1029139,39.4015525 47.2869845,37.6139552 C44.4914438,40.759328 46.4837127,42.9882506 47.458133,43.8978806 C47.6756561,44.1035537 48.0073605,44.4113184 48.0111702,44.521891 C48.0111702,44.8311433 47.2101597,45.3377371 45.1997082,45.1520272 C48.7025972,49.3612425 52.7821414,48.2252105 54.9425295,47.6112717 C55.4826647,47.4600308 56.1269299,47.1799149 56.2950345,47.4346625 C56.5795771,47.8238635 55.8165372,49.6329624 54.7858662,50.5793442 C60.6865242,49.8018111 62.6224435,46.383146 63.5999582,44.5986212 C63.9301143,43.9984168 64.2130109,43.476498 64.4503918,43.476498 C65.0650164,43.476498 65.6126957,46.0124863 65.1981707,47.9581458 C69.1103962,44.2823755 67.9845157,40.3364612 67.4132724,38.5718758 C67.2748108,38.1412134 67.1562057,37.7681803 67.1562057,37.5509775 C67.1562057,37.2247633 67.2580739,37.1342262 67.4825274,37.0766457 C68.4607573,37.0766457 69.6032809,37.4297158 70.962635,38.084426 C67.3440646,29.5370126 54.8292251,30.7098758 51.7896004,28.8186189 C54.0891138,28.6943074 57.0078586,26.9903522 59.5790092,25.3208751 C60.48727,24.7283575 61.191699,24.1396057 61.759136,23.6645058 C62.3525028,23.1679553 62.865161,22.7373927 63.140508,22.7373927 C63.9012136,22.7373927 64.0069897,24.9916813 63.6151967,26.3732617 C65.517713,25.1351652 66.4137578,23.2731262 66.4137578,21.5254212 C66.4137578,19.7884903 65.4629308,18.7053767 64.8376374,17.9900533 C64.6421345,17.7666999 64.3736399,17.4650847 64.3644476,17.3591241 C64.3644476,17.2609002 64.437537,17.1449712 64.5782352,17.0398286 C65.2347378,16.5547602 66.5141433,16.3743557 67.8476731,16.6790706 C64.9136696,12.8751221 61.2669396,13.9573406 59.2647979,14.6174797 C58.6592903,14.8178213 57.7632421,15.1009858 57.7632421,14.8493141 C57.7632421,14.1300311 58.7049756,12.6594771 60.3784399,11.6370879 C56.9622305,11.4029967 52.2695629,13.9911185 48.8928309,15.8156126 C46.1300083,17.3054091 43.5299682,18.7046743 42.0337233,18.7046743 C41.1109875,18.7046743 40.7876591,18.3662099 40.7876591,18.0245959 C40.7876591,15.4410137 49.8543233,8.54 59.4314091,8.54 C63.05986,8.54 66.025066,9.4434069 68.0066718,11.1527887 C69.7250388,12.6371813 70.6743938,14.7310263 70.6743938,17.0513753 C70.6743938,20.6135027 69.0031953,23.0704815 68.004314,24.5372005 C67.4916804,25.2925148 67.2109463,25.7077072 67.2109463,26.1491255 C67.2109463,26.8383794 67.8476653,27.31271 68.9026919,28.0978552 C70.9771415,29.6429267 74.4473684,32.2226683 74.4473684,37.5149292 C74.4473684,43.5110259 71.2996749,47.1622233 68.6601238,49.1730934 L68.6600654,49.1731523 Z" id="logo"></path>
            </g>
        </g>
    </g>
</svg>